<svg viewBox="0 0 100 100" xmlns="http://www.w3.org/2000/svg" style="display: none;">

  <symbol viewBox="0 0 534 90.1" id="shape-logo">
    <path d="M44.1,90.6C17.9,90.6,0,71.4,0,45.3C0,19,17.9,0,44.1,0s44.3,19,44.3,45.3C88.4,71.4,70.4,90.6,44.1,90.6z M44.1,24.1
      c-9.7,0-16.3,8-16.3,21.1s6.6,21.1,16.3,21.1s16.4-8,16.4-21.1S53.9,24.1,44.1,24.1z"/>
    <path d="M95.1,1.4h35.3c28.4,0,45.1,17.1,45.1,43.9c0,26.7-16.7,43.9-45.1,43.9H95.1V1.4z M129,65.4c12.3,0,19.3-7.9,19.3-20.1
      c0-12.4-7-20.3-19.3-20.3h-6.7v40.4H129z"/>
    <path d="M182.3,1.4h35.3c28.4,0,45.1,17.1,45.1,43.9c0,26.7-16.7,43.9-45.1,43.9h-35.3V1.4z M216.1,65.4c12.3,0,19.3-7.9,19.3-20.1
      c0-12.4-7-20.3-19.3-20.3h-6.7v40.4H216.1z"/>
    <path d="M281.3,43.9c-6.4-2.3-11.9-9.1-11.9-18.6c0-15.7,10.6-23.9,28.9-23.9H340v87.7h-44.1c-18.3,0-28.9-8.7-28.9-24.3
      C267,54.7,273,46.6,281.3,43.9z M313.9,35V23.7h-11.6c-4.6,0-7.1,1.9-7.1,5.6c0,3.7,2.6,5.7,7.1,5.7H313.9z M313.9,54.9h-13.4
      c-4.4,0-7,2.3-7,6c0,3.4,2.6,5.9,7,5.9h13.4V54.9z"/>
    <path d="M390.8,90.6c-26.3,0-44.1-19.1-44.1-45.3C346.7,19,364.6,0,390.8,0c26.3,0,44.3,19,44.3,45.3
      C435.1,71.4,417.1,90.6,390.8,90.6z M390.8,24.1c-9.7,0-16.3,8-16.3,21.1s6.6,21.1,16.3,21.1c9.7,0,16.4-8,16.4-21.1
      S400.6,24.1,390.8,24.1z"/>
    <path d="M490.7,1.4h28.9l-31.4,58.9v28.9h-27.9V60.3l-31-58.9h30L475,32.7L490.7,1.4z"/>
    <path d="M518.7,59.3c8.6,0,15.3,6.6,15.3,15.4c0,8.7-6.7,15.4-15.3,15.4c-8.4,0-15.1-6.7-15.1-15.4
      C503.6,65.9,510.3,59.3,518.7,59.3z"/>
  </symbol>

  <symbol viewBox="0 0 318.9 383.1" id="shape-letter-b">
    <path d="M62.5,185.7c-28-10-52-39.8-52-81.3C10.5,35.8,56.8,0,136.7,0h182.2v383.1H126.2C46.3,383.1,0,345.1,0,277
      C0,232.8,26.2,197.4,62.5,185.7z M204.9,146.8V97.4h-50.7c-20.1,0-31,8.3-31,24.5s11.4,24.9,31,24.9H204.9z M204.9,233.7h-58.5
      c-19.2,0-30.6,10-30.6,26.2c0,14.9,11.4,25.8,30.6,25.8h58.5V233.7z"/>
  </symbol>

  <symbol viewBox="0 0 633.2 712.1" id="shape-home">
    <path d="M633.2,712.1H0V297.8L322.3,0l310.8,298.2V712.1z M63.9,648.2h505.3V325.4L321.5,87.8l-257.6,238V648.2z"/>
  </symbol>

  <symbol viewBox="0 0 2479.4 593.1" id="shape-arrow">
    <polygon points="2477,295.7 2182.2,0.8 2125.6,57.4 2324.6,256.4 -12,256.4 -12,336.4 2323.5,336.4 2125.6,534.3
  2182.2,590.8 2477,296 2476.8,295.8 "/>
  </symbol>

  <symbol viewBox="0 0 1792.9 590" id="shape-arrow-small">
    <polygon points="1792.9,294.9 1498.1,0 1441.5,56.6 1640.5,255.6 0,255 0,335 1639.4,335.6 1441.5,533.5 1498.1,590 1792.9,295.2 1792.7,295 "/>
  </symbol>

  <symbol viewBox="0 0 927.7 1612" id="shape-scroll-cta">
    <polygon points="355.9,1154.9 383.3,1127.5 451,1195.2 451,0 489.8,0 489.8,1195.2 557.5,1127.5 584.9,1154.9 470.4,1269.4 "/>
    <path fill="#ffffff" d="M891.2,967.6c-23.4-55.2-56.8-104.8-99.4-147.4c-42.6-42.6-92.2-76-147.4-99.4c-23.7-10-48-18-72.8-23.9v35
      c20.3,5.2,40.1,12,59.6,20.2c51.2,21.6,97.2,52.6,136.6,92.1s70.5,85.5,92.1,136.6c22.4,53,33.8,109.3,33.8,167.3
      s-11.4,114.3-33.8,167.3c-21.6,51.2-52.6,97.2-92.1,136.6s-85.5,70.5-136.6,92.1c-53,22.4-109.3,33.8-167.3,33.8
      c-58,0-114.3-11.4-167.3-33.8c-51.2-21.6-97.2-52.6-136.6-92.1s-70.5-85.5-92.1-136.6c-22.4-53-33.8-109.3-33.8-167.3
      s11.4-114.3,33.8-167.3c21.6-51.2,52.6-97.2,92.1-136.6s85.5-70.5,136.6-92.1c23.6-10,47.9-17.8,72.7-23.3V694
      c-29.3,6.1-58,15-85.9,26.8c-55.2,23.4-104.8,56.8-147.4,99.4s-76,92.2-99.4,147.4C12.3,1024.8,0,1085.5,0,1148.2
      s12.3,123.4,36.5,180.6c23.4,55.2,56.8,104.8,99.4,147.4c42.6,42.6,92.2,76,147.4,99.4c57.2,24.2,117.9,36.5,180.6,36.5
      c62.6,0,123.4-12.3,180.6-36.5c55.2-23.4,104.8-56.8,147.4-99.4c42.6-42.6,76-92.2,99.4-147.4c24.2-57.2,36.5-117.9,36.5-180.6
      S915.4,1024.8,891.2,967.6z"/>
  </symbol>

  <symbol viewBox="0 0 668.2 426.7" id="shape-chevron">
    <polygon points="0,92.6 92.6,0 334.1,241.4 575.5,0 668.2,92.6 334.1,426.7 "/>
  </symbol>

  <symbol viewBox="0 0 472.9 207.7" id="shape-gamepad">
    <path d="M368.6,0H103.9C46.4,0,0,46.4,0,103.9s46.4,103.9,103.9,103.9c39.6,0,225.6,0,265.2,0c57.5,0,103.9-46.4,103.9-103.9
      C472.4,46.4,426,0,368.6,0z M143.9,118.8h-29.5v29.5H85v-29.5H55.6V89.4H85V59.9h29.5v29.5h29.5V118.8z M338.6,122.2
      c-8.7,0-15.5-7.2-15.5-15.5s7.2-15.5,15.5-15.5c8.7,0,15.5,7.2,15.5,15.5S347.3,122.2,338.6,122.2z M352.1,72.5
      c0-8.7,7.2-15.5,15.5-15.5c8.7,0,15.5,7.2,15.5,15.5s-7.2,15.5-15.5,15.5C358.9,88.4,352.1,81.2,352.1,72.5z M372.4,151.2
      c-8.7,0-15.5-7.2-15.5-15.5s7.2-15.5,15.5-15.5c8.7,0,15.5,7.2,15.5,15.5S381.1,151.2,372.4,151.2z M401.4,117.4
      c-8.7,0-15.5-7.2-15.5-15.5s7.2-15.5,15.5-15.5c8.7,0,15.5,7.2,15.5,15.5S410.1,117.4,401.4,117.4z"/>
  </symbol>

  <symbol viewBox="0 0 563.8 338.3" id="shape-vr-gear">
    <path d="M552.5,0H11.3C5,0,0,5,0,11.3V327c0,6.3,5,11.3,11.3,11.3h206.1c5,0,9.4-3.1,10.6-7.5l28.2-85.8c8.1-24.4,42.6-24.4,50.7,0
      l28.8,85.8c1.3,4.4,5.6,7.5,10.6,7.5h206.1c6.3,0,11.3-5,11.3-11.3V11.3C563.8,5,558.8,0,552.5,0z M140.9,225.5
      c-31.3,0-56.4-25.1-56.4-56.4s25.1-56.4,56.4-56.4s56.4,25.1,56.4,56.4S172.3,225.5,140.9,225.5z M422.9,225.5
      c-31.3,0-56.4-25.1-56.4-56.4s25.1-56.4,56.4-56.4s56.4,25.1,56.4,56.4S454.2,225.5,422.9,225.5z"/>
  </symbol>

  <symbol viewBox="0 0 499.1 499.1" id="shape-atom">
    <path d="M487,117.1c-22.3-31.8-71.4-43.6-132.4-36.6C328.9,30.8,291.6,0,249.6,0c-39.8,0-75.3,27.6-100.9,72.7
      c-55.9-8.3-101.9,1-125.4,29.7c-27.9,34-17,86.4,23,140.7C2.1,294.7-13,346.4,12.1,382c22.3,31.8,71.4,43.6,132.4,36.6
      c25.7,49.7,63,80.5,105.1,80.5c39.8,0,75.3-27.6,100.8-72.7c56,8.3,101.9-1,125.4-29.7c27.9-34,17-86.5-23-140.8
      C497,204.4,512.1,152.8,487,117.1z M461.6,131.3c17.2,24.4,5.2,62.3-27.2,102c-13.6-15.5-29.5-30.9-47.4-45.9
      c-4.2-29.7-11.3-57.1-20.8-81.3C411.2,101.9,446.5,109.9,461.6,131.3z M390.8,229c8.8,8.6,16.9,17.2,24.2,25.8
      c-7.5,7.6-15.8,15.3-24.6,22.8c0.6-9.2,0.9-18.6,0.9-28.1C391.2,242.6,391.1,235.8,390.8,229z M351.5,160.1
      c-6-4.2-12-8.4-18.3-12.5c-14.3-9.3-28.8-17.8-43.2-25.5c15.9-5,31.3-8.9,46.1-11.7C342.2,125.5,347.4,142.2,351.5,160.1z
       M249.6,26.7c28.4,0,54.7,22.4,74.6,58.7c-22,4.4-45.2,11.1-68.8,19.8c-26.3-11.7-52.1-20.6-76.5-26.6
      C198.2,46.4,223,26.7,249.6,26.7z M166.1,103.2c17,4,35,9.5,53.4,16.6c-15,6.8-30.1,14.3-45.2,22.7c-9,5-17.8,10.2-26.3,15.6
      C152.8,138.2,158.9,119.7,166.1,103.2z M37.5,367.8c-17.2-24.4-5.2-62.3,27.2-102c13.6,15.5,29.5,30.9,47.4,45.9
      c4.2,29.7,11.3,57.1,20.8,81.3C87.9,397.2,52.6,389.3,37.5,367.8z M108.4,270.1c-8.8-8.6-16.9-17.2-24.2-25.8
      c7.5-7.6,15.7-15.3,24.6-22.8c-0.6,9.2-0.9,18.6-0.9,28.1C107.9,256.5,108.1,263.3,108.4,270.1z M112.9,182.2
      c-17.2,12.8-32.7,26-46.4,39.4c-29.1-41.7-38.1-80.2-19-103.5C63.2,99,95.6,92.8,136.3,97.8C125.7,122.6,117.7,151.1,112.9,182.2z
       M147.6,339c6,4.2,12.1,8.4,18.3,12.5c14.3,9.3,28.8,17.8,43.2,25.5c-15.9,5-31.3,8.9-46.1,11.7C156.9,373.6,151.7,356.9,147.6,339
      z M249.6,472.4c-28.4,0-54.7-22.4-74.6-58.7c22-4.4,45.2-11.1,68.8-19.8c26.3,11.7,52.1,20.6,76.5,26.6
      C300.9,452.7,276.1,472.4,249.6,472.4z M333,395.9c-17-4-35-9.5-53.4-16.6c15-6.8,30.1-14.3,45.2-22.7c9-5,17.8-10.3,26.3-15.6
      C346.4,361,340.3,379.4,333,395.9z M357.9,303c-15.2,10.8-31.6,21.2-49,30.9c-21.2,11.8-42.7,22-63.9,30.4
      c-20.5-9.8-41.1-21.3-61.3-34.4c-15.3-10-29.6-20.4-42.9-31.1c-1.9-15.9-2.9-32.4-2.9-49.2c0-18.3,1.2-36.2,3.4-53.4
      c15.2-10.8,31.6-21.2,49-30.9c21.2-11.8,42.7-22,63.9-30.4c20.5,9.8,41.1,21.3,61.3,34.4c15.3,9.9,29.6,20.4,42.9,31.1
      c1.9,15.9,2.9,32.4,2.9,49.2C361.3,267.9,360.1,285.8,357.9,303z M451.6,381c-15.7,19.1-48.1,25.3-88.8,20.3
      c10.6-24.8,18.6-53.2,23.4-84.3c17.2-12.8,32.8-26.1,46.4-39.5C461.7,319.2,470.7,357.7,451.6,381z"/>
    <ellipse cx="249.6" cy="249.6" rx="50.1" ry="44.6"/>
  </symbol>

  <symbol viewBox="0 0 242.3 450" id="shape-facebook">
    <path d="M155.8,0c-48.5,0-86.5,38.1-86.5,86.5v51.9H0v69.2h69.2V450h69.2V207.7h77.9l17.3-69.2h-95.2V86.5
      c0-10.4,6.9-17.3,17.3-17.3h86.5V0H155.8z"/>
  </symbol>

  <symbol viewBox="0 0 430.1 265.9" id="shape-behance">
    <path d="M388.4,37.9H280.7V11.1h107.8L388.4,37.9C388.4,37.9,388.4,37.9,388.4,37.9z M208.9,147.6
      c7,10.8,10.4,23.8,10.4,39.2c0,15.9-3.9,30.1-11.9,42.7c-5.1,8.3-11.4,15.4-18.9,21c-8.5,6.5-18.6,11-30.2,13.4
      c-11.6,2.4-24.2,3.6-37.8,3.6H0V0h129.2c32.6,0.5,55.7,10,69.3,28.5c8.2,11.4,12.2,25,12.2,40.9c0,16.4-4.1,29.5-12.4,39.4
      c-4.6,5.6-11.4,10.6-20.4,15.2C191.7,129,202,136.8,208.9,147.6z M61.7,105.5h56.6c11.6,0,21-2.2,28.3-6.6
      c7.2-4.4,10.9-12.3,10.9-23.5c0-12.4-4.8-20.7-14.4-24.7c-8.2-2.8-18.8-4.2-31.6-4.2H61.7V105.5z M163,183c0-13.9-5.7-23.5-17-28.7
      c-6.3-2.9-15.3-4.4-26.8-4.5H61.7v71.3h56.6c11.6,0,20.6-1.5,27.1-4.7C157.1,210.6,163,199.5,163,183z M428.4,139.5
      c1.3,8.8,1.9,21.5,1.7,38.1H290.5c0.8,19.3,7.4,32.7,20,40.4c7.6,4.8,16.8,7.2,27.6,7.2c11.4,0,20.7-2.9,27.8-8.8
      c3.9-3.1,7.3-7.6,10.3-13.2h51.2c-1.3,11.4-7.5,22.9-18.6,34.6c-17.2,18.6-41.2,28-72.1,28c-25.5,0-48-7.9-67.5-23.6
      C249.8,226.5,240,201,240,165.5c0-33.3,8.8-58.7,26.4-76.4C284,71.3,306.9,62.5,335,62.5c16.7,0,31.7,3,45.1,9
      c13.4,6,24.4,15.4,33.1,28.4C421,111.3,426.1,124.5,428.4,139.5z M378.1,144.5c-0.9-13.3-5.4-23.4-13.4-30.3
      c-7.9-6.9-17.9-10.4-29.7-10.4c-12.9,0-22.8,3.7-29.9,11c-7.1,7.3-11.5,17.2-13.4,29.7L378.1,144.5L378.1,144.5z"/>
  </symbol>

  <symbol viewBox="0 0 101.4 124" id="shape-logo-head">
    <g>
      <path class="st0" d="M17.5,33.2c0.9-0.7,1.9-1.3,2.9-2c-0.8-0.9-3.8-3.7-9.5-3.1C15.1,30,16.8,32.2,17.5,33.2z"/>
      <path class="st0" d="M21.6,30.5c0.6-0.3,1.2-0.7,1.9-1c-1.1-1.3-4.9-4.8-10.2-2.8C18.4,27,21.1,29.9,21.6,30.5z"/>
      <path class="st0" d="M19.1,54.6c0,0,0.8-7.2,4.3-11.9C23.5,42.6,18.5,46.4,19.1,54.6z"/>
      <path class="st0" d="M16.4,34c-0.5-0.8-2.2-3.1-6.8-5c1,3.6,3.2,6.5,4,7.5C14.5,35.6,15.4,34.8,16.4,34z"/>
      <path class="st0" d="M22.7,52.6c-2.8,5.7,0.1,15.9,0.1,15.9C21.8,60.1,22.7,52.6,22.7,52.6z"/>
      <path class="st0" d="M7,32.3c-0.7,1.4-1.1,2.9-1.2,4.5c-0.1,2.7,1,5,2.8,6.4C9,42.6,9.3,42,9.7,41.4C7.2,38.1,6.8,34.7,7,32.3z"/>
      <path class="st0" d="M10.8,39.8c0.6-0.8,1.2-1.6,1.9-2.3c-0.8-0.9-2.9-3.6-4.1-7.1c-0.4,1.7-0.8,5.8,1.9,9.8
        C10.6,40.1,10.7,40,10.8,39.8z"/>
      <path class="st0" d="M61.3,25c0,0-3.6,3.2-7.9,3.8C53.4,28.9,58,29.3,61.3,25z"/>
      <path class="st0" d="M58.4,8.3c0,0-2.8-1.8-5.2,0.8C53.2,9,55.6,7.4,58.4,8.3z"/>
      <path class="st0" d="M66.4,18.2c0,0,2-5.9-2.5-7.9C63.9,10.4,66.9,11.8,66.4,18.2z"/>
      <path class="st0" d="M96,70.9c-0.5-0.2-1.4-0.2-2.4,0.2c0.1,1,0.1,1.9,0.1,2.9c0,1.6-0.1,3.1-0.2,4.7c2.9-2,3.9-4,3.2-6.7
        C96.6,71.4,96.3,71.1,96,70.9z"/>
      <path class="st0" d="M14.4,68.7c-1-4.2-1.1-7.6-1.1-7.6C12.3,64.9,14.4,68.7,14.4,68.7z"/>
      <path class="st0" d="M36.9,25.2c2-2.3,2.3-3.7,1.9-4.2c-0.6-0.7-3.2-0.5-6,1.3c-2.8,1.8-5.1,4.3-6.3,5.8c0.5-0.2,1-0.4,1.5-0.6
        C31.2,26.5,34.3,25.7,36.9,25.2z"/>
      <path class="st0" d="M32,34.9c0,0,4.2-2.6,7.9-3.5C39.9,31.3,35.3,31.2,32,34.9z"/>
      <path class="st0" d="M59.7,22.5c1.3-1.3,2.2-3.1,2.4-5c0.1-0.9,0-1.9-0.1-2.8c0-0.2-0.1-0.5-0.2-0.7c-0.1-0.2-0.2-0.4-0.3-0.7
        c-0.2-0.4-0.5-0.8-0.8-1.2c-0.6-0.7-1.5-1.2-2.4-1.5c-0.9-0.3-1.8-0.4-2.7-0.2c0.9,0,1.8,0.2,2.6,0.6c0.8,0.3,1.5,0.9,2,1.5
        c1,1.4,1.3,3.2,1.1,4.9c0,0.2,0,0.4-0.1,0.6l-0.1,0.3l-0.1,0.3c0,0.2-0.1,0.4-0.2,0.6c-0.1,0.2-0.1,0.4-0.2,0.6
        c-0.4,0.8-0.8,1.5-1.4,2.2c-0.3,0.3-0.6,0.7-0.9,1c-0.3,0.3-0.7,0.6-1,0.9c-0.7,0.6-1.4,1.1-2.2,1.5c0.9-0.3,1.7-0.7,2.4-1.2
        C58.4,23.8,59.1,23.2,59.7,22.5z"/>
      <path class="st0" d="M39,47.2c0,0,5.3-1.7,10.4,0.4C49.4,47.6,44.3,43.7,39,47.2z"/>
      <path class="st0" d="M43.6,48.5c0,0,2-0.3,3.7,0.2C47.3,48.7,46,47.3,43.6,48.5z"/>
      <path class="st0" d="M65.2,103.6c-2-0.7-3.6-0.5-4.6-0.3c0,0,0.1,0,0.1,0.1c0.8,0.6,1.4,1.3,1.9,2c0.5,0.8,0.9,1.6,1,2.5
        c-0.4-0.8-1-1.5-1.5-2.1c-0.6-0.6-1.2-1.2-1.9-1.7c-0.7-0.5-1.5-0.8-2.3-1l-0.6-0.1c-0.1,0-0.2-0.1-0.3-0.1l-0.3,0l-0.6-0.1
        c-0.2,0-0.4,0-0.6,0c-1.7-0.1-3.4,0.1-5,0.8c-0.8,0.3-1.5,0.8-2.1,1.3c-0.3,0.3-0.6,0.6-0.8,0.9c-0.1,0.2-0.2,0.3-0.3,0.5
        c-0.1,0.1-0.1,0.2-0.1,0.3c0,0,0,0.1-0.1,0.1c0.4,0.3,0.9,0.6,1.4,0.8c0.5,0.3,1,0.5,1.4,0.7c0.8,0.3,1.7,0.7,2.7,1
        c1.2,0.4,2.4,0.6,3.4,0.8c1.1,0.2,2.3,0.3,3.5,0.3c4.3,0.1,7.9-1,10.4-2C69.9,107.7,69.6,105,65.2,103.6z"/>
      <path class="st0" d="M99.3,71.3L99.3,71.3c-0.1-0.3-0.1-0.5-0.2-0.8c-0.5-1.2-1.3-1.8-1.9-2.1c-0.7-0.3-1.4-0.4-2.3-0.4l-0.2,0
        c-0.1,0-0.1,0-0.2,0c-0.6-5.5-2-10.7-4.3-15.7c-1.7-3.7-3.8-7.2-6.4-10.3c0.1-0.3,0.3-0.7,0.5-1.3c0.7-2,1.2-5.2,0-8.5
        c-0.5-1.5-1.4-2.8-2.5-4c-1.5-1.6-3.5-3-6-4.1c0.1-0.1,0.1-0.3,0.2-0.4l0-0.1c0,0,0-0.1,0-0.1c0.1-0.2,0.1-0.3,0.2-0.5l0.1-0.2
        c0.1-0.2,0.1-0.5,0.2-0.7c0.3-1.2,0.5-2.5,0.6-3.8c0.1-2.5-0.2-4.9-1-7.1c-1.6-4.2-4.8-7.3-9.4-9C62.1,0.6,57,0.9,52.5,3.1
        c-0.5,0.3-0.9,0.5-1.3,0.7c-2.4,1.5-4.4,3.5-5.8,5.8c-1.1,1.8-1.8,3.9-2,5.9c-0.1,0.6-0.1,1.3,0.1,1.9c0,0,0,0.1,0,0.1l0,0.1
        c0,0.2,0.1,0.3,0.2,0.5c0.4,0.9,1.2,1.6,2.2,1.7c0.2,0,0.3,0,0.5,0c0.5,0,1.2-0.1,2.1-0.6c0.9-0.5,1.7-1.3,2.5-2.5
        c0.1-0.2,0.2-0.3,0.3-0.5c0.6-0.7,1.3-1.2,2-1.4c0.3-0.1,0.5-0.1,0.8-0.1c0.3,0,0.5,0.1,0.8,0.2c0.3,0.1,0.5,0.3,0.7,0.6
        c0.1,0.3,0.2,0.7,0.1,1.1c-0.1,0.3-0.1,0.5-0.2,0.7c-0.3,0.8-1.5,2.7-5,4.2c-1.1,0.5-2.4,0.9-3.8,1.2c-0.6,0.1-2.7,0.4-4,0.5
        c-0.5,0-1.1,0.1-1.7,0.2c0.5-1.2,0.6-2.2,0.3-3.1c-0.1-0.3-0.3-0.7-0.6-1c-0.3-0.4-0.8-0.7-1.3-0.9c-0.9-0.3-1.9-0.4-3.1-0.2
        c-1.5,0.3-3.1,0.9-4.7,2c-3.2,2.1-5.9,5.1-7.1,6.6c0,0-0.1-0.1-0.1-0.1c-1.2-1.1-3.1-2.4-5.6-3c-2.5-0.5-5.1-0.1-7.6,1.2
        c-0.1,0-0.1,0-0.2-0.1c-0.9-0.3-1.8-0.2-2.6,0.2l-0.1,0.1c-0.2,0.1-0.4,0.3-0.6,0.4c-0.9,0.8-1.3,1.9-1.1,3c-1,1.3-1.8,2.7-2.4,4.2
        c-0.3,0.8-0.5,1.6-0.6,2.4c-0.1,0.5-0.1,0.9-0.1,1.4c-0.1,3.2,1.1,6.1,3.2,7.9c-1.3,2.7-2.2,5.4-2.6,8c0,0,0,0,0,0l0,0.1v0
        c0,0.2,0,0.3-0.1,0.5c-0.2,1.9-0.3,3.7-0.1,5.5c0.4,3.2,1.3,5.5,2,7c0.1,0.2,0.2,0.4,0.3,0.6C6.1,66.7,6.1,67,6,67.5
        c-0.2,1.6-0.1,4.1,1.1,7.2c0,0,0,0-0.1,0c-1.3,0.2-2.5,0.8-3.4,1.7c-0.9,0.9-1.6,2-1.9,3.2c-0.3,1.1-0.4,2.2-0.3,3.3l0,0.1
        c0,0.2,0.1,0.4,0.1,0.6l0.1,0.5c0,0.1,0,0.2,0.1,0.2l0,0c0,0.1,0.1,0.2,0.1,0.3l0.1,0.3l0.3,0.8l0.2,0.4c0.1,0.3,0.3,0.5,0.5,0.8
        c0.4,0.6,0.9,1.2,1.5,1.8C5.2,89.7,6,90.4,7,90.9c0.7,0.4,1.4,0.7,2.2,1c0,0,0.1,0,0.1,0.1c-0.5,0.5-0.9,1.2-0.7,2.1
        c0,0.2,0.1,0.3,0.1,0.4c0.3,0.7,0.8,1.1,1.5,1.3c-0.1,0.3-0.1,0.7-0.1,1c-0.1,1.5,0.9,2.6,2.4,2.7c0.4,0,0.8,0,1.2-0.1
        c0.1,1.1,0.3,2.2,0.9,3c0.6,0.7,1.3,1.1,2.3,1.1c1.1,0,2-0.4,2.7-1.3c0.7,1,1.4,2,2.1,2.9c2.2,2.9,4.8,5.4,7.6,7.6
        c7,5.5,15.2,8.4,23.7,8.4c10.1,0,19.8-4.1,27.4-11.7c7.4-7.3,12.3-17.3,13.8-28.2c2.3-1.5,3.9-3.1,4.7-4.8
        C99.6,74.9,99.7,73.2,99.3,71.3z M97.9,76c-0.8,1.7-2.3,3.2-4.7,4.7c-2.9,22.3-19.8,39.4-40.2,39.4c-8.3,0-16.3-2.8-23.1-8.1
        c-2.8-2.2-5.2-4.7-7.4-7.4c-1.1-1.4-2.1-2.9-3.1-4.5c-0.1,0.3-0.2,0.6-0.3,0.8c-0.4,0.8-1,1.6-2.2,1.6c-2.4-0.1-2.4-3.5-2-5.8
        c0,0,0-0.1,0-0.1c0,0,0,0.1-0.1,0.3c-0.2,0.4-0.7,1.2-1.4,1.5c-0.2,0.1-0.5,0.1-0.8,0.1c-0.9-0.1-1.5-0.6-1.4-1.6
        c0-0.5,0.2-1.2,0.6-2c0,0-1.6,0.4-2-0.7c0-0.1-0.1-0.2-0.1-0.2c-0.2-0.9,0.6-1.3,1.3-1.8c0.2-0.2,0.4-0.3,0.5-0.6
        c-0.2,0-0.4-0.1-0.6-0.1c-0.3-0.1-0.5-0.1-0.8-0.2c-0.2-0.1-0.4-0.1-0.6-0.2c-0.7-0.3-1.4-0.6-2.1-0.9c-0.8-0.5-1.6-1.1-2.3-1.8
        c-0.5-0.5-1-1-1.3-1.6c-0.2-0.2-0.3-0.5-0.4-0.7l-0.2-0.3l-0.1-0.4L3,85l-0.1-0.2l-0.1-0.2l-0.1-0.2c0-0.1-0.1-0.2-0.1-0.3
        c0-0.1-0.1-0.3-0.1-0.4c0-0.1,0-0.1,0-0.2c0-0.2-0.1-0.4-0.1-0.6c0,0,0-0.1,0-0.1c-0.1-1,0-2,0.3-2.9c0.3-1,0.9-2,1.6-2.7
        c0.8-0.8,1.8-1.3,2.9-1.5c0.1,0,0.1,0,0.2,0c0.4-0.1,0.9-0.1,1.3,0c-1.8-3.6-1.9-6.4-1.7-8.1c0.1-0.7,0.2-1.1,0.3-1.4
        c-0.1-0.2-0.3-0.4-0.5-0.9c-0.6-1.2-1.6-3.5-1.9-6.6c-0.2-1.5-0.2-3.3,0.1-5.3c0-0.2,0-0.4,0.1-0.6c0,0,0,0,0,0c0,0,0,0,0-0.1
        c0.4-2.5,1.3-5.4,2.9-8.5c-2.3-1.6-3.6-4.4-3.5-7.6c0-0.4,0-0.9,0.1-1.3c0.1-0.7,0.3-1.5,0.5-2.2c0.5-1.6,1.4-3,2.5-4.3
        c-0.2-0.7-0.3-1.6,0.6-2.4c0.1-0.1,0.3-0.2,0.4-0.3c0,0,0.1,0,0.1,0c0.6-0.3,1.2-0.3,1.7-0.1c0.2,0.1,0.4,0.1,0.5,0.2
        c2.8-1.6,5.3-1.7,7.4-1.3c2.3,0.5,4,1.7,5.2,2.7c0.4,0.3,0.7,0.6,0.9,0.9c0.1-0.1,0.2-0.3,0.4-0.5c1.1-1.4,3.8-4.6,7.2-6.8
        c1.6-1,3.1-1.6,4.3-1.8c1-0.2,1.9-0.1,2.5,0.1c0.4,0.1,0.7,0.3,0.9,0.6c0.1,0.2,0.3,0.4,0.4,0.6c0.3,0.8,0.1,2.1-1.3,4.1
        c1.5-0.2,2.8-0.4,3.7-0.4c1.3-0.1,3.5-0.4,4.2-0.5c1.6-0.3,2.9-0.8,4-1.3c3.7-1.6,5.1-3.7,5.5-4.7c0.1-0.3,0.2-0.6,0.3-1
        c0.2-0.7,0.1-1.4-0.2-1.9c-0.3-0.5-0.6-0.8-1.1-1c-0.4-0.2-0.8-0.3-1.2-0.3c-0.4,0-0.8,0-1.1,0.1c-0.9,0.3-1.8,0.9-2.6,1.8
        c-0.1,0.2-0.3,0.4-0.4,0.6c-0.7,1.1-1.4,1.7-2.1,2.1c-0.7,0.4-1.2,0.5-1.6,0.5c-0.2,0-0.3,0-0.4,0c-0.7-0.1-1.1-0.5-1.4-1.1
        c0-0.1-0.1-0.2-0.1-0.3c0,0,0-0.1,0-0.1c0,0,0,0,0-0.1c-0.1-0.5-0.1-1.1-0.1-1.5c0.2-2,0.9-3.9,1.9-5.6c1.3-2.2,3.1-4.1,5.5-5.5
        c0.4-0.2,0.8-0.5,1.2-0.7c4.2-2.1,9-2.3,13.3-0.7c4.3,1.6,7.3,4.5,8.8,8.4c0.8,2,1.1,4.3,1,6.6c-0.1,1.2-0.2,2.4-0.6,3.6
        c-0.1,0.2-0.1,0.4-0.2,0.7c0,0.1,0,0.1-0.1,0.2c-0.1,0.2-0.1,0.3-0.2,0.5c0,0.1,0,0.1-0.1,0.2c-0.1,0.2-0.2,0.4-0.2,0.6
        c0,0,0,0,0,0c-0.1,0.2-0.2,0.5-0.3,0.7c-2.2,4.7-6.5,8.4-12,10.4c-3.5,1.2-6.5,1.1-8.4,0.8l-0.1,0c-1.6-0.3-4.6-0.8-7.3-0.5
        c-6.5,0.9-11.1,3.8-14.6,9.2c-5.1,8-2.8,19.2-2,21.6c0.2,0.6,0.5,1.2,0.8,1.9c0.9,1.9,1.9,4.1,1,5.5c-0.4,0.6-0.8,0.9-1.3,0.9
        c-0.4,0-0.7-0.1-1-0.3c1.1,4.4,0.6,7.8-1.4,8.6c-0.5,0.2-0.9,0.2-1.3,0c-0.6-0.3-1.1-1.1-1.3-1.7c-0.2,1.8-0.8,3.1-1.7,3.7
        c-0.5,0.3-1,0.5-1.6,0.5c-0.3,0-0.6,0-1-0.1c-1.4-0.4-1.7-2.6-1.8-4.2c-0.3,0-0.5,0-0.8-0.1c-0.5,0-0.9-0.1-1.4-0.2
        c-0.9-0.1-1.8-0.3-2.7-0.6c-0.9-0.3-1.8-0.6-2.6-1l-0.3-0.1l-0.3-0.2l-0.6-0.3c-0.3-0.2-0.7-0.3-1.1-0.5c-0.7-0.2-1.5-0.3-2.2-0.2
        c-0.7,0.1-1.3,0.5-1.8,0.9c-0.5,0.5-0.9,1.1-1.1,1.8c-0.2,0.7-0.3,1.5-0.2,2.2c0,0.2,0.1,0.4,0.1,0.6c0,0.2,0.1,0.4,0.1,0.6
        l0.1,0.3l0.1,0.3L5,84.7L5.1,85c0.3,0.7,0.8,1.3,1.4,1.9c0.6,0.6,1.2,1.1,1.9,1.5c0.7,0.4,1.5,0.8,2.2,1c1.6,0.5,3.3,0.7,4.9,0.5
        c0.8-0.1,1.7-0.2,2.5-0.4c0.9-0.1,1.7-0.3,2.7-0.5c-0.7,0.7-1.4,1.2-2.3,1.6c-0.5,0.2-1,0.4-1.5,0.6c2.9,7.8,7.7,14.5,13.9,19.4
        c6.5,5.1,14.2,7.8,22.1,7.8c4.7,0,9.3-1,13.5-2.7c-7.1,1.5-13-1.3-13-1.3c9.7,2.1,17.3-1.2,20.3-2.8c11-7.9,18.3-21.8,18.3-37.7
        c0-1.3,0-2.6-0.1-3.9l0,0c0,0,0,0,0,0c-0.4-5.8-1.8-11.3-4.2-16.5c-2.1-4.7-5.1-9-8.5-12.6c-0.2-0.1-0.3-0.3-0.5-0.4
        c-0.6-0.5-2.5-1.9-4.7-2.7c-1.1-0.4-3.6-1.3-6.5-0.7c-0.9,0.2-2,0.6-3.7,0.4c-0.3,0-1.8-0.2-1.9-0.8c-0.1-0.4,0.5-0.8,0.7-0.9
        c10-3.8,12.4-10.5,12.4-10.6l0.1-0.3l0.3,0.1c2.6,1.1,4.2,2.2,5.7,3.8c1,1.1,1.8,2.3,2.3,3.7c1.1,3.1,0.5,6.1,0,7.8
        c-0.2,0.6-0.4,1.1-0.5,1.3c-0.1,0.1-0.1,0.2-0.1,0.2l-0.1,0.1l-0.1,0c0,0,0,0-0.1,0c2.7,3.2,5,6.8,6.7,10.7
        c2.4,5.2,3.8,10.7,4.3,16.5c0,0,0,0,0,0.1c0.4-0.1,0.8-0.2,1.2-0.3c0.1,0,0.1,0,0.2,0c0.6,0,1.2,0,1.8,0.3c0.5,0.2,1,0.7,1.4,1.5
        c0.1,0.2,0.1,0.4,0.2,0.6C98.6,73.2,98.5,74.7,97.9,76z M83.1,75.8c1.1,1.4,1.4,3.2,0.8,5.1c-0.9,3.1-4.3,4.7-10.2,4.7
        c-0.8,0-1.7,0-2.6-0.1c-1.5-0.1-3.3-0.5-4.7-2c-1.2-1.3-1.9-3.3-1.4-5.3c0.5-2.3,2.5-4.1,4.9-4.5c0.3-0.1,1.6-0.5,4.3-0.6
        c-0.3-2.6-0.4-6.4-1.6-11.1c-0.6-2.6-3.7-11,2.5-11.5c3.6-0.3,5.6,2.9,6.7,6l0.3,1l0.3,1.3c0.5,2.1,0.6,3.7,0.6,3.7
        s1.3,8.2-0.6,12.6C82.7,75.3,82.9,75.5,83.1,75.8z M79.7,47c-0.4,0.7-1.1,1.1-2,1.4c-1.1,0.3-2.1,0.3-3,0.4
        c-1.4,0.1-2.7,0.1-4.3,0.9c-1.2,0.6-2.5,1.1-3.6,1.1c-0.4,0-0.7-0.1-1-0.2c-0.6-0.3-0.9-0.8-1.1-1.5c-0.2-0.6,0-1.3,0.5-2
        c1.3-1.9,4.9-4.1,9.2-4.6c4.8-0.5,5.5,2,5.6,2.2C80,44.7,80.3,45.9,79.7,47z M66.5,68c-0.8-6.7-2.6-13.8-2.6-13.8
        C68,61.7,66.5,68,66.5,68z M86.3,84.7L86.3,84.7c0.7-0.4,1.6-0.8,2.2-1.2c0,0-0.6,1.7-1.6,2.6c-0.4,1.8-1.7,7.3-5,12.7
        c-5.2,8.6-12.8,13.1-22.1,12.9c-0.1,0-0.2,0-0.4,0c-11.9-0.4-18-7.2-21.1-12.8c-2.3-4.2-3.2-8.3-3.5-10.5c-1.3,2.2-1.6,4.2-1.6,4.2
        s-1-3.5,1.4-6.7c2.4-3.1,6.5-3.9,6.5-3.9s-1.5,1.1-3.2,2.7c0.9,0.2,2,0.7,3.3,1.2c4.2,1.6,10.5,4.1,21.2,3.9
        C77,89.5,86.2,84.7,86.3,84.7z M56,78.5c0.3,4-2.9,4.4-2.9,4.4C54.5,81.6,56,78.5,56,78.5z M48.7,82.5c-6.2,0-3.7-6.9-6.3-17.8
        c-0.7-2.8-4-10.5,2.5-11.2c4.3-0.5,6.5,3.9,7.6,7.6l0.3,1.1l0.3,1.4c0.3,1.5,0.4,2.5,0.4,2.5S56.3,82.5,48.7,82.5z M53.6,51.2
        c-1.1,1.8-2.9,1.4-5.4,1c-0.4-0.1-0.8-0.2-1.3-0.2c-3.4-0.6-5.3-0.3-8.8,1.2c-1,0.4-1.8,0.6-2.4,0.6c-0.6,0-1.1-0.1-1.4-0.3
        c-0.7-0.3-1.1-0.8-1.2-0.9c-0.7-0.7-1-2.2-0.6-3.6c0.3-1.2,1.7-4.2,6.6-5.3c7-1.5,11.3,1.2,11.5,1.4l0,0
        C54.6,47.6,54.4,49.8,53.6,51.2z M17.1,87.4c-4.5,0.8-8.5-1.1-8.7-3.7c-0.2-2.2,1.8-2.6,3.8-1.9c1.6,0.6,4.8,1.2,4.8,1.2
        C16.5,85.4,17.1,87.4,17.1,87.4z"/>
      <path class="st0" d="M76.9,74.4c-4.6-0.1-6.6,0.6-6.6,0.6l-0.1,0c-2,0.3-3.6,1.7-4,3.5c-0.5,2.2,1.1,3.9,1.2,4.1
        c0.7,0.7,1.7,1.4,3.8,1.5c4.7,0.3,10.4-0.1,11.4-3.6c0.4-1.5,0.2-2.9-0.6-4C81,75.2,79.1,74.4,76.9,74.4z"/>
      <path class="st0" d="M59.9,91.2c-9.4-0.2-15.2-2.4-19.1-4c-0.5-0.2-1-0.4-1.5-0.6c-0.1,0.5-0.2,1.4,0.3,2c0.3,0.4,0.8,0.7,1.5,0.8
        l0.3,0l-0.1,0.3c0,0.1-0.4,1.9,1.2,2.8c1.7,1,3.2,0.1,3.3,0l0.5-0.3l-0.1,0.6c0,0.1-0.5,3.3,2,3.9c2.5,0.7,4.3-1.2,4.4-1.2l0.4-0.4
        l0.1,0.6c0,0.1,0.3,3.1,4.1,3.1c3.8,0,4.5-2.7,4.5-2.9l0.2-0.8l0.3,0.8c0.1,0.1,1.3,3,5,2.5c3.7-0.5,4.1-3.5,4.1-3.7l0.1-0.9
        l0.4,0.8c0,0.1,0.9,1.6,3.2,1.3c2.6-0.4,3.2-3.2,3.4-4.5l0.1-0.6l0.4,0.5c0,0,0.8,1.1,2.2,0.6c2-0.8,2.4-3.2,2.5-4.4
        c-4,1.5-11.3,3.6-21.1,3.8C61.6,91.2,60.7,91.2,59.9,91.2z"/>
      <path class="st0" d="M70.6,46.4c0,0,2.9-1.3,5.8-1.3C76.4,45.2,73.1,44.3,70.6,46.4z"/>
    </g>
  </symbol>

  <symbol viewBox="0 0 101.4 150" id="shape-logo-body">
    <path d="M85,95.1c-0.1,0.3-0.2,0.9,0.1,1.5c0.1,0.3,0.4,0.4,0.9,0.5c0.7,0.1,1.8-0.1,2.7-1.1c1.7-1.8,2.3-4,1.8-6
      c-0.5-1.8-1.6-2.2-2.2-2.2c0,1.5-0.3,3-1,4.4C86.6,93.7,85.8,94.6,85,95.1z"/>
    <path d="M80.8,92.7c0.1,0.5,0.4,1.6,1.5,2c0.7,0.2,1.3,0.1,1.9-0.2c0,0,0,0,0,0l0,0c1-0.6,1.8-1.8,2.2-2.7
      c1.4-2.9,1-6.6-0.7-7.5c-1.5-0.8-2.7-0.2-3,0.1c0.5,1.3,0.6,2.9,0.3,4.5C82.6,91.2,81.6,92.2,80.8,92.7z"/>
    <path d="M35.1,22.3c-0.5,0.9-0.8,1.9-0.8,2.9c0,1.7,0.6,3.1,1.7,3.9c0.2-0.3,0.4-0.7,0.6-1
      C35.1,25.9,35,23.7,35.1,22.3z"/>
    <path d="M40.8,23.5c-0.4-0.6-1.5-1.9-4.1-3c0.6,2.1,1.8,3.8,2.4,4.5C39.6,24.5,40.2,24,40.8,23.5z"/>
    <path d="M36.7,20.4C36.7,20.4,36.7,20.4,36.7,20.4C36.6,20.4,36.7,20.4,36.7,20.4L36.7,20.4z"/>
    <path d="M37.4,27.1c0.3-0.5,0.7-0.9,1.1-1.4c-0.5-0.6-1.7-2.2-2.4-4.2c-0.2,1-0.5,3.5,1.1,5.9
      C37.3,27.3,37.3,27.2,37.4,27.1z"/>
    <path d="M90.2,46.8c-0.1-0.3-0.2-0.5-0.4-0.6c-0.3-0.2-0.8-0.1-1.5,0.1c0,0.6,0,1.2,0,1.8c0,1,0,1.9-0.1,2.9
      C90,49.7,90.5,48.4,90.2,46.8z"/>
    <path d="M71.5,13.8c0,0,1.2-3.6-1.5-4.8C70.1,9.1,71.8,10,71.5,13.8z"/>
    <path d="M74.5,87.2c0.2,0.1,0.4,0.1,0.5,0.2c0-0.1,0-0.2,0.1-0.3c0.1-0.3,0.2-0.6,0.3-0.9c0.1-0.3,0.2-0.6,0.4-0.9
      c0.2-0.3,0.3-0.6,0.5-0.8c-0.1,0.3-0.1,0.6-0.2,0.9c-0.1,0.3-0.1,0.6-0.1,0.9c0,0.3,0,0.6,0,0.9c0,0.2,0,0.4,0,0.6
      c0.3,0.2,0.6,0.4,0.9,0.5c0.2,0.1,0.3,0.3,0.5,0.4c0.2,0.1,0.3,0.3,0.5,0.4c0.7,0.6,1.3,1.2,1.7,1.9c0.2,0.3,0.3,0.6,0.5,0.8
      c0.5-0.2,1.6-0.9,2.1-3.4c0.4-2,0-4-1-5.3c-0.7-0.9-1.7-1.4-2.9-1.4c-1.1,0-2.1,0.4-2.9,1.2c-1.1,1.1-1.5,2.7-1.4,3.9
      C74,87.1,74.2,87.1,74.5,87.2z"/>
    <path d="M66.8,109L66.8,109c5.8-0.6,9.6-6.6,9.6-6.6l0.1-0.2l0.2-0.1c0.6-0.2,1-0.6,1.2-0.8c-0.5-0.2-0.9-0.6-1.3-0.9
      c-0.4-0.4-0.8-0.7-1.2-1.1c0.5,0.1,1,0.4,1.5,0.7c0.4,0.3,0.9,0.5,1.3,0.7c0.9,0.3,1.9,0.3,3,0.2c1-0.2,1.9-0.5,2.7-1.1
      c0.4-0.3,0.7-0.7,1-1c0.1-0.2,0.3-0.4,0.4-0.6c0-0.1,0.1-0.1,0.1-0.2c-0.5-0.2-0.9-0.5-1.1-0.9c-0.3-0.5-0.3-1-0.3-1.4
      c-0.3,0.1-0.6,0.1-0.9,0.1c-0.4,0-0.7-0.1-0.9-0.1c-0.6-0.2-1-0.5-1.3-0.8c0,0.5-0.1,1-0.3,1.5c-0.2,0.4-0.5,0.9-0.9,1.2
      c-0.2,0.2-0.4,0.3-0.7,0.4c-0.2,0.1-0.4,0.2-0.7,0.2c-0.1,0-0.2,0-0.4,0.1l-0.4,0c-0.1,0-0.2,0-0.4,0c-0.1,0-0.1,0-0.2,0l-0.2,0
      c-0.2,0-0.4-0.1-0.7-0.2c-0.2-0.1-0.4-0.2-0.6-0.3c-0.8-0.5-1.3-1.2-1.8-2c-0.1-0.1-0.1-0.2-0.2-0.3l-0.1-0.3
      c-0.1-0.2-0.2-0.4-0.3-0.5c-0.1-0.2-0.2-0.3-0.3-0.5c-0.1-0.1-0.1-0.1-0.2-0.2c0,0-0.1,0-0.1-0.1c0,0,0,0,0,0l0,0c0,0,0,0,0,0l0,0
      c-0.1-0.1-0.3-0.1-0.4-0.2c-0.1-0.1-0.2-0.1-0.4-0.2c-0.2-0.1-0.5-0.3-0.7-0.5c-0.2-0.2-0.4-0.4-0.5-0.6c-0.1-0.2-0.2-0.5-0.3-0.8
      c0.2,0.2,0.4,0.4,0.6,0.5c0.2,0.2,0.4,0.3,0.6,0.4c0.2,0.1,0.4,0.2,0.6,0.3c0.1,0.1,0.2,0.1,0.3,0.1c0.1,0,0.2,0.1,0.3,0.1
      c0,0,0,0,0,0c0,0,0,0,0,0c0,0,0,0,0.1,0c0,0,0.1,0,0.1,0.1c0.1,0,0.1,0.1,0.2,0.1c0.1,0.1,0.2,0.2,0.3,0.3c0.2,0.2,0.3,0.4,0.4,0.6
      c0.1,0.2,0.2,0.4,0.3,0.6l0.1,0.3c0,0.1,0.1,0.2,0.1,0.3c0.4,0.7,0.9,1.3,1.6,1.7c0.2,0.1,0.3,0.2,0.5,0.3c0.2,0.1,0.3,0.1,0.5,0.2
      c0.3,0.1,0.7,0.1,1,0c0.2,0,0.3-0.1,0.5-0.2c0.2-0.1,0.3-0.1,0.4-0.2c0.1-0.1,0.2-0.2,0.3-0.4c0.1-0.1,0.2-0.3,0.2-0.4
      c0.3-0.6,0.2-1.4,0.1-2.2c-0.2-0.7-0.5-1.4-1-2.1c-0.4-0.6-1-1.2-1.6-1.7c-0.6-0.5-1.3-1-2-1.3c-0.3-0.2-0.7-0.3-1.1-0.5
      c-0.4-0.1-0.7-0.2-1.1-0.3c-0.7-0.1-1.5-0.1-2.2,0.2c-0.7,0.2-1.3,0.7-1.8,1.3c-0.2,0.3-0.4,0.6-0.6,0.9c0,0.1-0.1,0.2-0.1,0.3
      c0,0.1,0,0.1-0.1,0.2c0,0.9,0,1.9,0,2.7c0,0,0,0.1,0,0.1c0.2,0.7,0.6,1.4,1,2l0.4,0.4l0.4,0.4l0.5,0.4c0.2,0.1,0.3,0.2,0.5,0.3
      c0.7,0.4,1.4,0.8,2.1,1.3c-0.9,0-1.7-0.2-2.5-0.6c-0.6-0.3-1.2-0.8-1.7-1.3c-0.2,0.3-0.6,0.6-1.1,0.9c-0.8,5.7-2.6,9.4-2.9,10
      C65.6,108,66.2,108.5,66.8,109z M75,101.2c0,0-1.8-1.4-2.7-1.7C72.4,99.6,74.1,99.4,75,101.2z"/>
    <path d="M57,99.7c0.1,0.6,0.5,1,1,1.3c0.4,0.2,0.8,0.2,1.2,0.1c0.7-0.3,2.3-1.5,4-6.6c1.8-5.1,3.2-14.2-0.3-18.3l0,0
      c0,0-0.8-0.9-2.5-1.5c0.4,0.7,0.7,1.4,0.9,2.3c1.2,4.7,0.1,13.4-3.3,18.9l0,0C58,95.9,56.6,98.1,57,99.7z M58.1,97.8
      c0.2-0.4,0.5-0.7,0.8-0.8c0.4-0.2,0.7-0.2,1.1,0c0.3,0.2,0.5,0.5,0.6,0.9c0.1,0.4,0,0.8-0.2,1.2c-0.3,0.6-0.9,1-1.4,1
      c-0.2,0-0.3,0-0.5-0.1C57.9,99.5,57.7,98.6,58.1,97.8z"/>
    <path d="M53.4,18.1c1.2-1.4,1.4-2.3,1.2-2.6c-0.4-0.4-1.9-0.3-3.7,0.8C49.2,17.5,47.8,19,47,20
      c0.3-0.1,0.6-0.2,0.9-0.4C49.9,18.9,51.8,18.4,53.4,18.1z"/>
    <path d="M50.4,24c0.1,0,2.6-1.6,4.8-2.2C55.3,21.9,52.4,21.8,50.4,24z"/>
    <path d="M68.4,18c0,0-2.2,2-4.8,2.4C63.6,20.3,66.4,20.6,68.4,18z"/>
    <path d="M66.7,7.7c0,0-1.7-1.1-3.2,0.5C63.5,8.2,64.9,7.2,66.7,7.7z"/>
    <path d="M67.4,16.4c0.8-0.8,1.3-1.9,1.4-3.1c0.1-0.6,0-1.2-0.1-1.7c0-0.1-0.1-0.3-0.1-0.4c-0.1-0.1-0.1-0.3-0.2-0.4
      c-0.1-0.3-0.3-0.5-0.5-0.7c-0.4-0.4-0.9-0.8-1.4-0.9C66.1,9,65.5,8.9,64.9,9c0.6,0,1.1,0.1,1.6,0.3c0.5,0.2,0.9,0.5,1.2,0.9
      c0.6,0.8,0.8,2,0.7,3c0,0.1,0,0.3-0.1,0.4l0,0.2l-0.1,0.2c0,0.1-0.1,0.3-0.1,0.4c-0.1,0.1-0.1,0.3-0.2,0.4
      c-0.2,0.5-0.5,0.9-0.9,1.4c-0.2,0.2-0.4,0.4-0.6,0.6c-0.2,0.2-0.4,0.4-0.6,0.5c-0.4,0.3-0.9,0.7-1.4,0.9c0.5-0.2,1-0.5,1.5-0.8
      C66.6,17.2,67.1,16.8,67.4,16.4z"/>
    <path d="M41.5,23c0.6-0.4,1.2-0.8,1.8-1.2c-0.6-0.6-2.5-2.1-5.7-1.8C39.9,21.1,41,22.3,41.5,23z"/>
    <path d="M37.3,19.9C37.3,19.9,37.3,19.9,37.3,19.9C37.3,19.9,37.3,19.9,37.3,19.9L37.3,19.9z"/>
    <path d="M39.6,44.8c-0.6-2.6-0.6-4.7-0.6-4.7C38.4,42.4,39.5,44.7,39.6,44.8z"/>
    <path d="M44,21.4c0.4-0.2,0.8-0.4,1.2-0.6c-0.7-0.8-3.1-3.1-6.6-1.6C41.8,19.2,43.5,20.8,44,21.4z"/>
    <path d="M44.7,34.9c-1.7,3.5,0,9.5,0.1,9.8C44.2,39.6,44.7,35.1,44.7,34.9z"/>
    <path d="M42.5,36.1c0,0,0.5-4.4,2.7-7.3C45.1,28.9,42.1,31.2,42.5,36.1z"/>
    <path d="M33.9,79.7c-0.3-0.3-0.5-0.7-0.5-1.4c0,0-0.1,0-0.1,0c-1.4,0-2.8,0.2-3.5,0.3c0,0-0.1,0-0.1,0
      c0,0.1,0.1,0.2,0.1,0.3c0.1,0.2,0.1,0.4,0.2,0.6l0.1,0.4l0,0.2c0,0.1,0,0.2,0.1,0.3c0,0.1,0,0.3,0.1,0.4c0.1,0,0.1,0,0.2,0
      c0,0,0.1,0,0.1,0c0.2,0,0.4,0,0.7,0c0.1,0,0.1,0,0.2,0c0.1,0,0.3,0,0.4,0c0.4,0,0.7,0,1.1,0.1c0.1,0,0.1,0,0.2,0
      c0.5,0.1,1.1,0.2,1.6,0.4c0.5,0.2,0.9,0.5,1.4,0.8c0,0,0,0,0.1,0c0.1,0,0.1,0,0.2,0c0.1,0,0.3,0.1,0.4,0.1c0.1,0,0.2,0.1,0.4,0.1
      c0.1,0,0.2,0.1,0.3,0.1c0,0,0,0,0,0c0.1,0,0.2,0.1,0.3,0.1c0.4,0.2,0.7,0.4,1,0.6c0.2,0.1,0.3,0.2,0.5,0.4c0.1,0,0.1,0.1,0.2,0.1
      c0.2-0.3,0.5-0.8,0.8-1.4c0.3-0.6,0.8-1.2,1.2-1.7c2.4-0.4,4.2-0.2,4.2-0.2c-2.3-0.8-5.6-0.4-6.7-0.3c-0.1,0-0.2,0-0.3,0
      c-0.3,0-0.7,0.1-1,0.1C36.8,80.4,34.9,80.6,33.9,79.7z M33.1,80.2l-0.2,0c-0.4,0-0.8-0.1-1.1-0.1c-0.1,0-0.1,0-0.2,0c0,0,0,0,0,0
      c0,0,0,0,0,0c-0.1,0-0.2,0-0.2,0c-0.1,0-0.1,0-0.2,0c-0.1,0-0.3,0-0.4,0c0-0.1,0-0.1,0-0.2l-0.2-0.7c0-0.1,0-0.1,0-0.2c0,0,0,0,0,0
      c0.6-0.1,1.5-0.1,2.3-0.2c0.1,0.6,0.4,0.9,0.7,1.2c0.1,0.1,0.2,0.2,0.3,0.2C33.5,80.3,33.3,80.2,33.1,80.2z M37.7,80.9
      c0.2,0,0.4-0.1,0.7-0.1c0.1,0,0.2,0,0.3,0c0.1,0,0.1,0,0.2,0l0.2,0c0.3,0,0.9-0.1,1.6-0.2c-0.5,0.7-1,1.5-1.4,2.1
      c0,0-0.1-0.1-0.1-0.1c-0.4-0.2-0.7-0.4-1.1-0.6c-0.1-0.1-0.2-0.1-0.3-0.1c0,0,0,0-0.1,0c-0.1,0-0.2-0.1-0.3-0.1
      c-0.1-0.1-0.3-0.1-0.4-0.1c-0.1,0-0.3-0.1-0.4-0.1c0,0-0.1,0-0.1,0c-0.2-0.2-0.5-0.3-0.7-0.4c0.3,0,0.6,0,0.9,0
      C36.9,81,37.4,81,37.7,80.9z"/>
    <path d="M70.1,136.2c1.9-0.2,4.2-1.3,5.7-3.3c0.5-0.7,0.9-1.6,1.2-2.4l0,0c-0.3-0.6-0.6-1.4-0.8-1.8
      c-2.3-4.6-5-7.3-5.9-8.1c-0.1,0.1-0.1,0.2-0.2,0.3c-1.1,1.5-2.3,2.8-3.6,4c-0.3,0.3-0.7,0.6-1,0.9c-0.3,0.3-0.7,0.6-1,0.8
      c-0.3,0.3-0.7,0.5-1.1,0.8l-0.2,0.1C64.4,128.6,67.6,131.6,70.1,136.2L70.1,136.2z"/>
    <path d="M57.5,32.4c0.1,0,1.3-0.2,2.3,0.2C59.8,32.5,59,31.6,57.5,32.4z"/>
    <path d="M74.1,31.1c0,0,1.8-0.8,3.6-0.8C77.7,30.3,75.7,29.8,74.1,31.1z"/>
    <path d="M69.6,140.4c2.9,0,6.7-2.2,8.9-5c2-2.7,2.8-5,2.3-6.7c-0.3-0.9-0.9-1.5-1.8-1.7c-0.7-0.2-1.6-0.2-2.6,0.1
      c0.2,0.4,0.4,0.8,0.7,1.2c0.1,0.1,0.2,0.3,0.3,0.6c0.4-0.1,0.8-0.1,1.1,0c0.3,0.1,0.4,0.2,0.5,0.5c0.3,0.8-0.1,2.5-2,4.9
      c-0.9,1.2-2.2,2.3-3.7,3.1c-1.3,0.7-2.6,1.1-3.6,1.1c0,0-0.1,0-0.1,0c-0.4,0-1-0.1-1.3-0.5c-0.4-0.6-0.3-1.4,0.3-2.5
      c-0.4-0.6-0.8-1.2-1.2-1.8c-0.1,0.2-0.2,0.3-0.3,0.5c-1.2,1.9-1.3,3.5-0.5,4.9c0.6,0.9,1.6,1.4,2.9,1.4
      C69.5,140.4,69.6,140.4,69.6,140.4z"/>
    <path d="M64.8,124.9c0.3-0.3,0.7-0.6,1-0.9c1.3-1.2,2.5-2.4,3.5-3.8c0.5-0.7,1-1.4,1.4-2.2c0.2-0.4,0.4-0.8,0.5-1.1
      l0.1-0.3l0.1-0.3c0-0.1,0.1-0.2,0.1-0.3c0,0,0-0.1,0-0.1l-0.4-0.6c-1-1.5-2.2-2.9-3.4-4.2c-1.3-1.3-2.6-2.5-4-3.6
      c-0.7-0.6-1.4-1.1-2.2-1.6c-0.7-0.5-1.5-1.1-2.2-1.6c-1.5-1-3.1-1.9-4.8-2.6c0.9,0.3,1.7,0.6,2.6,1c0.8,0.4,1.7,0.8,2.5,1.2
      c0.8,0.4,1.6,0.9,2.4,1.4c0.8,0.5,1.5,1,2.3,1.6c0.3-0.6,1.1-2.4,1.8-5.1c-0.6-0.7-1.8-1.8-3.5-3c-1,1.8-1.9,2.9-2.9,3.2
      c-0.3,0.1-0.6,0.2-0.8,0.2c-0.4,0-0.8-0.1-1.2-0.3c-0.8-0.4-1.3-1.1-1.5-1.9c-0.4-1.7,0.6-3.6,1-4.3c-1.4-0.7-3-1.2-4.6-1.7
      c-5.7-1.8-9.1-2.2-10.4-2.3c0.1,0.1,0.2,0.3,0.3,0.4c0.1,0.2,0.3,0.5,0.3,0.8c0.1,0.3,0.1,0.6,0.1,0.8c0,0.1,0,0.1,0,0.2
      c0,0.1,0,0.1,0,0.2l0,0.2c0,0.1,0,0.1-0.1,0.2c-0.1,0.3-0.3,0.5-0.4,0.7l-0.1,0.2c0,0.1-0.1,0.1-0.1,0.1l-0.1,0.1l-0.1,0.1
      c-0.4,0.3-0.8,0.6-1.3,0.8c-0.3,0.1-0.7,0.2-1,0.3c0,0,0,0,0,0c0,0.2,0,0.3,0,0.5c-0.1,0.3-0.2,0.7-0.3,1c-0.2,0.3-0.4,0.6-0.6,0.8
      c-0.2,0.2-0.5,0.4-0.8,0.6c-0.5,0.3-1.1,0.5-1.7,0.6c-0.5,0.1-1,0.1-1.5,0.1c-0.4,0.5-1.6,1.7-4.1,1.7c0,0-0.1,0-0.1,0
      c-0.3,0-0.6,0-0.9-0.1c-0.1,1.6,0.1,3.1,0.5,4.7c0.2,0.8,0.5,1.7,0.8,2.5c0.3,0.8,0.7,1.6,1.2,2.3c1,1.4,2.2,2.6,3.6,3.7
      c1.4,1.1,2.9,2,4.5,2.8c1.6,0.8,3.2,1.5,4.8,2.2c0.4,0.2,0.8,0.4,1.2,0.5c0.4,0.2,0.8,0.4,1.2,0.6c0.2,0.1,0.4,0.2,0.6,0.3l0.6,0.4
      c0.4,0.2,0.7,0.5,1.1,0.8c1.5,1,2.9,2.2,4.2,3.3c1.3,1.1,2.5,2.2,3.8,3.4c0,0,0,0,0,0c0.1,0,0.2-0.1,0.3-0.1
      c0.2-0.1,0.4-0.2,0.6-0.2c0.2-0.1,0.4-0.2,0.6-0.3c0.2-0.1,0.4-0.2,0.6-0.3c0.8-0.4,1.5-0.8,2.2-1.3c0.2-0.1,0.4-0.2,0.5-0.4
      l0.5-0.4c0.3-0.3,0.7-0.5,1-0.8C64.1,125.5,64.5,125.2,64.8,124.9z M47.6,99.6c0,0,2.2-0.3,4.1,1.2C51.6,100.8,48.7,99.8,47.6,99.6
      z"/>
    <path d="M78,48.3c-1.1-0.2-2.1,0-2.9,0.1c-0.6,0.1-1,0.1-1.4,0.3c-0.5,0.2-2,0.8-2.3,2.1c-0.3,1.4,0.7,2.4,0.8,2.5
      c0.4,0.4,1,0.9,2.3,0.9c2.9,0.2,6.4,0,7-2.2c0.3-0.9,0.1-1.8-0.4-2.4C80.4,48.7,79.1,48.5,78,48.3z"/>
    <path d="M70.8,66.2c-1.2-0.4-2.2-0.3-2.8-0.2c0,0,0,0,0.1,0c0.5,0.3,0.9,0.8,1.2,1.3c0.3,0.5,0.5,1,0.6,1.6
      c-0.3-0.5-0.6-0.9-0.9-1.3c-0.3-0.4-0.7-0.7-1.2-1c-0.4-0.3-0.9-0.5-1.4-0.6L66,65.8c-0.1,0-0.1,0-0.2,0l-0.2,0l-0.4-0.1
      c-0.1,0-0.3,0-0.4,0c-1-0.1-2.1,0.1-3.1,0.5c-0.5,0.2-0.9,0.5-1.3,0.8c-0.2,0.2-0.4,0.4-0.5,0.6c-0.1,0.1-0.1,0.2-0.2,0.3
      c0,0.1-0.1,0.1-0.1,0.2c0,0,0,0,0,0.1c0.5,0.4,1.1,0.7,1.7,1c0.5,0.2,1.1,0.4,1.8,0.6c0.7,0.2,1.4,0.4,2,0.5
      c0.7,0.1,1.4,0.2,2.2,0.2c2.3,0.1,4.5-0.3,6.4-1.2C73.7,68.8,73.5,67.1,70.8,66.2z"/>
    <path d="M97.6,121.4c0-0.2,0-0.4-0.1-0.6c0-0.2-0.1-0.4-0.1-0.6c0-0.1,0-0.2-0.1-0.3l-0.1-0.3c-0.2-0.7-0.6-1.4-1.1-2
      c-1.9-2.4-5.4-3.4-8.3-2.4c-1.5,0.5-2.8,1.5-3.9,2.6c-1.1,1.1-1.9,2.5-2.3,4c-0.4,1.5-0.4,3.1,0,4.6c0.2,0.8,0.5,1.5,0.8,2.3
      c0.3,0.8,0.6,1.5,0.9,2.3c-0.3-0.3-0.6-0.6-0.9-0.9c-0.2-0.2-0.4-0.5-0.5-0.7c0.1,1.8-0.8,4.1-2.6,6.5c-2.4,3.1-6.4,5.4-9.7,5.4
      c-0.1,0-0.1,0-0.2,0c-0.1,0-0.1,0-0.2,0c0,0,0,0,0,0.1c0,0.2,0,0.3,0.1,0.5c0.1,0.3,0.2,0.6,0.5,0.9c0.2,0.3,0.5,0.5,0.8,0.7
      c0.3,0.2,0.7,0.4,1,0.6c1.4,0.7,3,0.9,4.6,0.8c1.6-0.1,3.2-0.5,4.7-1.1c1.5-0.6,2.9-1.4,4.3-2.3c1.4-0.9,2.6-1.9,3.8-3
      c0.6-0.5,1.2-1.1,1.8-1.7c0.6-0.6,1.1-1.2,1.6-1.8c1.1-1.2,2-2.6,2.8-4c0.8-1.4,1.5-2.9,1.9-4.4c0.4-1.5,0.6-3.1,0.6-4.7
      C97.6,121.8,97.6,121.6,97.6,121.4z"/>
    <path d="M67.6,58.6c-5.8-0.1-9.3-1.5-11.7-2.4c-0.3-0.1-0.6-0.3-0.9-0.4c-0.1,0.3-0.1,0.8,0.2,1.2
      c0.2,0.3,0.5,0.4,0.9,0.5l0.2,0l0,0.2c0,0-0.2,1.2,0.8,1.7c1,0.6,2,0,2,0l0.3-0.2l-0.1,0.3c0,0.1-0.3,2,1.2,2.4
      c1.5,0.4,2.7-0.7,2.7-0.7l0.3-0.3l0,0.4c0,0.1,0.2,1.9,2.5,1.9c2.3,0,2.8-1.7,2.8-1.8l0.1-0.5l0.2,0.5c0,0.1,0.8,1.8,3.1,1.5
      c2.3-0.3,2.5-2.2,2.5-2.3l0.1-0.5l0.3,0.5c0,0,0.6,1,1.9,0.8c1.6-0.2,1.9-2,2.1-2.8l0.1-0.4l0.2,0.3c0,0,0.5,0.7,1.4,0.3
      c1.2-0.5,1.5-1.9,1.5-2.7c-2.4,0.9-6.9,2.2-12.9,2.4C68.6,58.6,68.1,58.6,67.6,58.6z"/>
    <path d="M30.3,101.1c1.3,0,2.2-0.4,2.8-0.9c-0.8-0.1-1.6-0.3-2.4-0.7c-0.5-0.2-1-0.5-1.5-0.9c-0.2-0.2-0.4-0.4-0.6-0.6
      c-0.2-0.2-0.3-0.5-0.5-0.7C29,98,30,98.4,31,98.8c1,0.4,2.1,0.5,3.1,0.5c1,0,2.1-0.2,2.9-0.7c0.4-0.2,0.8-0.5,1-0.9
      c0.1-0.2,0.2-0.4,0.2-0.6c0-0.1,0-0.2,0-0.2c-0.3,0-0.6,0-0.9,0l-0.4,0c-0.1,0-0.2,0-0.4-0.1c-0.1,0-0.2-0.1-0.4-0.1
      c-0.1,0-0.2-0.1-0.4-0.1c-0.5-0.2-0.9-0.3-1.3-0.6c-0.4-0.2-0.8-0.5-1.2-0.7c-0.8-0.5-1.4-1.2-2-1.9c0.8,0.4,1.6,0.8,2.4,1.2
      c0.8,0.4,1.6,0.8,2.4,1c0.8,0.2,1.7,0.3,2.5,0.2c0.4-0.1,0.8-0.1,1.2-0.3c0.4-0.2,0.7-0.4,1-0.6l0.1-0.1l0.1-0.1
      c0.1-0.1,0.1-0.1,0.2-0.2c0.1-0.1,0.2-0.3,0.3-0.4c0,0,0-0.1,0-0.1l0-0.1c0,0,0-0.1,0-0.1c0,0,0-0.1,0-0.1c0-0.2,0-0.3-0.1-0.5
      c0-0.2-0.1-0.3-0.2-0.5c-0.1-0.1-0.2-0.3-0.4-0.4c-0.3-0.3-0.6-0.5-1-0.7c-0.2-0.1-0.4-0.2-0.6-0.3l-0.3-0.2
      c-0.1-0.1-0.2-0.1-0.3-0.2c-0.4-0.3-0.8-0.6-1.1-0.9c-0.3-0.3-0.6-0.7-0.9-1.1c-0.3-0.4-0.5-0.8-0.7-1.2c0.7,0.6,1.4,1.2,2.1,1.7
      c0.4,0.3,0.7,0.5,1.1,0.7c0.1,0,0.2,0.1,0.3,0.1l0.3,0.1c0.2,0.1,0.4,0.2,0.6,0.3c0,0,0,0,0,0c0-0.1,0.1-0.1,0.1-0.2
      c0-0.1,0.1-0.2,0.1-0.3c0-0.1,0.1-0.2,0.1-0.3c0-0.1,0.1-0.2,0.1-0.3c0.1-0.4,0.1-0.8,0.1-1.3s-0.1-0.8-0.3-1.2
      c-0.1-0.2-0.2-0.4-0.3-0.6c0-0.1-0.1-0.2-0.2-0.3l-0.2-0.3c-0.6-0.7-1.2-1.3-2-1.8c-0.4-0.2-0.8-0.5-1.2-0.6
      c-0.1,0-0.2-0.1-0.3-0.1c-0.1,0-0.2-0.1-0.3-0.1c-0.1,0-0.2-0.1-0.3-0.1c-0.1,0-0.1,0-0.2,0c0,0-0.1,0-0.1,0l-0.2,0l-0.1-0.1
      c-0.4-0.3-0.8-0.5-1.2-0.7c-0.4-0.2-0.9-0.3-1.4-0.4c-0.5-0.1-1-0.1-1.5-0.1c-0.2,0-0.5,0-0.7,0c-0.2,0-0.5,0.1-0.7,0.1L29.5,82
      l-0.1-0.5c-0.1-0.4-0.2-0.8-0.2-1.2c-0.1-0.4-0.2-0.8-0.3-1.2c-0.1-0.4-0.2-0.8-0.3-1.2c-0.1-0.2-0.1-0.4-0.2-0.6l-0.2-0.6
      c-0.3-0.7-0.7-1.5-1.1-2.2c-0.4-0.7-0.9-1.4-1.5-2c0.4,0.2,0.7,0.5,1,0.7c0.3,0.3,0.6,0.6,0.9,0.9c0.5,0.7,1,1.4,1.4,2.2l0.1,0.3
      c0.1-0.1,0.2-0.1,0.3-0.2c0.2-0.2,0.4-0.4,0.5-0.7c0.2-0.3,0.3-0.5,0.4-0.8c0.1-0.3,0.2-0.6,0.3-0.9c0,0.3,0,0.6,0,1
      c0,0.3-0.1,0.6-0.2,1c-0.1,0.3-0.2,0.6-0.4,1c-0.1,0.2-0.3,0.4-0.5,0.6c0,0,0,0,0,0c0.7-0.1,2.5-0.3,4.2-0.3c0.9-0.2,3.2-1.2,3-4.9
      c-0.1-2.6-0.9-3.6-2-3.9C31.8,68,27.3,68,23,68.9c-4.8,1-7.7,2.7-8.3,4.9c-0.3,1-1.2,4.1,3.1,9.9c0.3,0.3,0.5,0.7,0.7,1
      c0.9,1.2,1.8,2.4,2.6,4c0.5-1.2,1.2-1.8,1.3-1.8c-0.6,1.4-0.6,3.9-0.6,3.9c0,0.9,0.1,1.8,0.2,2.5c0.1,0.7,0.2,1.1,0.2,1.1
      C23,98.6,27,101.1,30.3,101.1C30.2,101.1,30.3,101.1,30.3,101.1z M29.8,92.3c0,0-1.6,0-1.5-1.7C28.3,90.6,28.9,91.7,29.8,92.3z
       M25.1,93.9c0,0,0.6,1.1,1.5,1.7C26.6,95.5,25,95.5,25.1,93.9z"/>
    <path d="M99.3,121.9L99.3,121.9c0-0.2,0-0.4,0-0.7c0,0,0-0.1,0-0.1l0-0.1c0-0.1,0-0.2,0-0.3c0-0.1,0-0.2,0-0.3l0-0.1
      c0-0.2-0.1-0.3-0.1-0.5l0-0.1c0-0.1,0-0.1,0-0.2c0,0,0,0,0-0.1l-0.1-0.3c-0.2-0.7-0.5-1.3-0.9-2c-0.1-0.2-0.3-0.4-0.4-0.6
      c-1.1-1.5-2.8-2.6-4.7-3.2c-0.7-0.2-1.5-0.3-2.2-0.4c-0.2,0-0.4,0-0.6,0c-0.5,0-1,0.1-1.4,0.1c-0.2,0-0.4,0.1-0.6,0.1
      c-0.2,0.1-0.4,0.1-0.6,0.2c-0.1,0-0.1,0-0.2,0.1c-0.8,0.3-1.7,0.7-2.5,1.3c-0.7,0.5-1.4,1-2,1.7c0,0,0,0,0,0c0,0,0,0-0.1,0.1
      c-1.1,1.2-2,2.6-2.5,4c0,0.1-0.1,0.3-0.1,0.4c0,0.1-0.1,0.3-0.1,0.4c-0.2,0.8-0.3,1.7-0.3,2.6c0,0.3,0,0.6,0,0.8
      c-0.1,0.1-0.2,0.2-0.3,0.3c0,0-0.1,0.1-0.1,0.1c-0.9-0.2-1.9-0.2-3,0.1c-1.8-3-3.6-4.8-4.6-5.7c0.1-0.1,0.2-0.3,0.2-0.4l0.1-0.1
      c0-0.1,0.1-0.1,0.1-0.2c0.1-0.2,0.2-0.5,0.4-0.8c0.1-0.2,0.2-0.3,0.2-0.5l0.1-0.3l0.1-0.4l0-0.1c0-0.1,0-0.2,0.1-0.2
      c0,0,0-0.1,0-0.1c0-0.1,0-0.1,0-0.2l0,0c0,0,0-0.1,0-0.1l0.1-0.4l-0.7-1.2l-0.1-0.1c-0.1-0.2-0.3-0.4-0.4-0.6
      c-0.4-0.6-0.8-1.1-1.3-1.6c-0.5-0.6-1-1.1-1.5-1.7c-0.1-0.1-0.2-0.3-0.4-0.4c1.7-0.5,3.4-1.4,5-2.7c1.9-1.5,3.2-3.2,3.6-3.9
      c0,0,0,0,0,0c0.8-0.3,1.3-0.8,1.5-1.2c0,0,0,0,0,0c0.1,0,0.1,0,0.2,0c0.1,0,0.2,0,0.2,0c0.4,0,0.9,0,1.4,0l0,0c0.1,0,0.2,0,0.4,0
      c0.4-0.1,0.8-0.1,1.2-0.3c0.2-0.1,0.4-0.1,0.5-0.2l0.1,0c0.1,0,0.1,0,0.2-0.1c0.1-0.1,0.3-0.1,0.4-0.2c0.2-0.1,0.3-0.1,0.4-0.2
      c0.2-0.1,0.4-0.2,0.6-0.4c0.2-0.2,0.5-0.4,0.7-0.6c0.1-0.1,0.1-0.1,0.2-0.2c0.2-0.2,0.3-0.3,0.4-0.5c0.2-0.2,0.4-0.5,0.5-0.7
      l0.1-0.1c0-0.1,0.1-0.1,0.1-0.2c1.1-0.1,2.3-0.7,3.1-1.6c1.4-1.5,2.3-3.4,2.4-5.2c0.1-0.8,0-1.6-0.2-2.3c-0.3-1.2-0.9-2.2-1.8-2.8
      c-0.5-0.4-1-0.5-1.5-0.6c-0.3-1.6-1.1-2.8-2.3-3.5c-1.7-0.9-3.2-0.6-4-0.2c0-0.1-0.1-0.1-0.2-0.2c-0.4-0.5-0.8-0.8-1.3-1.2
      c-0.8-0.6-1.8-0.8-2.9-0.9c-0.8,0-1.6,0.1-2.3,0.5c-0.7,0.3-1.3,0.7-1.8,1.3c-0.1,0.1-0.2,0.2-0.2,0.3c-0.9,1.1-1.5,2.5-1.6,3.9
      c-0.1,0-0.2,0-0.3,0l-0.1,0c-0.6,0-1.1,0.1-1.6,0.3c-0.2,0.1-0.4,0.2-0.6,0.3c-0.3,0.2-0.6,0.3-0.9,0.5c-0.4-3.6-1.4-7.1-3.1-10.4
      c1.8-0.2,3.6-0.6,5.3-1.2c4-1.4,7.7-4,10.7-7.4c3.8-4.3,6.2-9.8,7-15.8c2.7-1.7,3.7-3.7,3.1-6.1c0-0.2-0.1-0.3-0.2-0.5
      c-0.3-0.7-0.8-1.1-1.2-1.2c-0.5-0.2-1-0.3-1.7-0.2c-0.2-1.5-0.4-2.9-0.8-4.4c-0.4-1.7-1-3.5-1.8-5.1l-0.1-0.2
      c-1-2.3-2.4-4.4-3.9-6.3c0.4-0.8,1.3-3.3,0.3-6c-0.4-1.1-1.1-2.1-2-3c-0.9-0.8-1.9-1.5-3.2-2c0-0.1,0.1-0.2,0.1-0.2l0-0.1
      c0-0.1,0.1-0.2,0.1-0.3l0.1-0.2c0-0.1,0.1-0.3,0.1-0.4c0.2-0.6,0.3-1.3,0.3-2c0.1-1.7-0.1-3.3-0.6-4.7c-1-2.6-3-4.5-5.8-5.5
      c-2.7-1-5.8-0.9-8.5,0.4c-0.4,0.2-0.7,0.3-1,0.5c-1.7,1-3,2.4-3.8,4.1c-0.5,1-0.8,2.1-1,3.2c0,0.2,0,0.4,0,0.6c0,0.4,0.1,1,0.5,1.4
      c0.3,0.3,0.6,0.5,1.1,0.6c0.1,0,0.2,0,0.3,0c0.4,0,1.1-0.1,1.9-0.8c0.3-0.3,0.6-0.6,0.9-1.1c0.1-0.2,0.2-0.3,0.3-0.4
      c0.2-0.3,0.5-0.5,0.8-0.6c0.1,0,0.2-0.1,0.3-0.1c0.1,0,0.2-0.1,0.4-0.1l0,0c0,0,0.1,0,0.1,0c0.2,0,0.5,0.1,0.6,0.2
      c0.1,0.1,0.2,0.2,0.2,0.3c0.1,0.2,0.1,0.4,0,0.7c0,0.1,0,0.1-0.1,0.2c0,0.1-0.1,0.2-0.1,0.2c-0.1,0.2-0.2,0.5-0.6,0.8
      c-0.1,0.1-0.1,0.2-0.2,0.3c-0.6,0.6-1.3,1-2.2,1.4c-0.7,0.3-1.5,0.6-2.4,0.8c-0.3,0.1-1.6,0.2-2.5,0.3c-0.3,0-0.7,0.1-1,0.1
      c0.3-0.7,0.4-1.3,0.2-1.8c0-0.1,0-0.1-0.1-0.2c-0.1-0.1-0.1-0.2-0.2-0.3c0-0.1-0.1-0.1-0.1-0.1c-0.3-0.4-0.8-0.6-1.3-0.7
      c-0.6-0.1-1.3,0-2,0.2c-0.7,0.2-1.5,0.6-2.3,1.1c-0.5,0.3-1,0.7-1.5,1.1c-0.1,0.1-0.2,0.2-0.3,0.3c-0.1,0.1-0.2,0.2-0.3,0.3
      c-0.1,0.1-0.2,0.2-0.3,0.3c-0.1,0.1-0.2,0.2-0.3,0.3c-0.2,0.2-0.4,0.4-0.7,0.7c-0.1,0.1-0.2,0.3-0.3,0.4L46,18.9
      c-0.1,0.1-0.2,0.2-0.3,0.3c0,0,0,0,0,0c-0.5-0.4-1.1-0.9-1.9-1.3c-0.3-0.1-0.5-0.2-0.8-0.3c-0.1,0-0.2-0.1-0.3-0.1
      c-1.7-0.6-3.5-0.4-5.3,0.5c0,0,0,0,0,0c0,0,0,0-0.1,0c-0.4-0.1-0.8-0.2-1.2,0c-0.2,0.1-0.4,0.2-0.6,0.3c-0.1,0.1-0.1,0.1-0.2,0.2
      c-0.1,0.1-0.1,0.1-0.2,0.2l0,0l-0.1,0.1c0,0,0,0,0,0c-0.1,0.1-0.2,0.3-0.3,0.5c-0.1,0.3-0.2,0.7-0.1,1c-1.2,1.4-1.8,3.1-1.9,4.9
      c-0.1,2,0.7,3.7,2,4.9c-0.5,1-0.9,2-1.2,3c-0.4,1.3-0.6,2.5-0.6,3.7c0,0.7,0,1.4,0.1,2c0.2,1.8,0.7,3.2,1.1,4
      c0.1,0.3,0.2,0.5,0.3,0.6c0,0,0,0,0,0c0,0.2-0.1,0.3-0.1,0.5c-0.1,1-0.1,2.6,0.7,4.5c0,0,0,0,0,0c-0.8,0.1-1.5,0.5-2.1,1.1
      c-0.5,0.5-1,1.2-1.2,1.9c-0.2,0.6-0.3,1.3-0.2,2c0,0,0,0.1,0,0.1c0,0.1,0,0.3,0.1,0.4l0.1,0.4c0,0.1,0,0.2,0.1,0.2l0.1,0.2l0.2,0.5
      l0.1,0.3c0.1,0.2,0.2,0.4,0.3,0.6c0.3,0.4,0.5,0.7,0.9,1.1c0.1,0.1,0.2,0.2,0.3,0.2c0.1,0.1,0.3,0.3,0.5,0.4l0,0l0,0
      c0.1,0,0.1,0.1,0.2,0.1c0.1,0.1,0.3,0.2,0.4,0.3c0.1,0,0.1,0.1,0.2,0.1c0.4,0.2,0.9,0.4,1.3,0.6c0,0,0.1,0,0.1,0c0,0,0,0,0,0
      c-0.1,0.1-0.1,0.1-0.2,0.2c-0.1,0.1-0.1,0.1-0.1,0.2c-0.1,0.3-0.2,0.6-0.1,0.9c0,0.1,0,0.2,0.1,0.3c0.2,0.4,0.5,0.7,0.9,0.8
      C37,61.7,37,61.9,37,62.2l0,0c0,0.4,0.2,0.8,0.4,1.1c0.1,0.1,0.3,0.2,0.5,0.3c0.1,0,0.2,0.1,0.2,0.1c0.1,0,0.2,0,0.3,0
      c0.3,0,0.5,0,0.7-0.1c0,0.2,0,0.3,0,0.5c0,0.1,0,0.2,0.1,0.4l0,0.2l0.6-0.2l-0.6,0.2c0.3,1,1,1.4,1.4,1.5c0.1,0,0.2,0,0.4,0
      c0.2,0,0.4,0,0.6-0.1c0.4-0.1,0.7-0.4,1-0.7c0.4,0.6,0.8,1.1,1.2,1.6c-2.8-0.7-5.9-1.4-7.3-1.6c-0.2,0-0.3,0-0.4,0
      c-0.4,0-0.8,0-1.1,0c-1.1,0.2-1.8,0.8-2.2,1.3c0,0-0.1,0-0.1,0l0,0c-0.2,0-0.4,0-0.5,0c-2.4-0.1-5.1,0-7.6,0.4
      c-0.7,0.1-1.4,0.2-2,0.3c-1.1,0.2-2.2,0.5-3.1,0.8c-4.5,1.5-6,3.7-6.5,5.2c-0.3,1.2-1.4,4.9,3.3,11.3l0.1,0.1
      c0.2,0.2,0.4,0.5,0.5,0.7c0,0.1,0.1,0.1,0.1,0.2l0,0c0.1,0.2,0.2,0.3,0.3,0.5c0.9,1.2,1.8,2.4,2.6,4.2c0,1,0.1,2.1,0.1,2.7
      c0.1,0.9,0.2,1.5,0.2,1.5c0.1,0.3,0.1,0.6,0.2,0.9c0.5,1.6,1.3,3,2.5,4.2c0.1,0.1,0.2,0.1,0.2,0.2c0.2,0.2,0.5,0.4,0.8,0.6
      c0.2,0.1,0.3,0.3,0.5,0.4c0.9,0.6,1.9,1.1,2.9,1.4c0,0.2,0,0.5,0,0.8c0,0.6,0.1,1.2,0.2,1.9c0,0.2,0.1,0.4,0.1,0.7
      c-2.5,2-6.4,2.9-6.5,3l-1,0.2l0.1,1c0,0.1,0.1,1.3,0.5,3c-1.2,0.3-2.4,0.7-3.6,0.9c-0.1-0.1-0.2-0.3-0.3-0.4
      c-0.7-0.9-1.5-1.5-2.3-2c-1.2-0.7-2.5-0.8-3.8-0.5c-0.2,0.1-0.5,0.1-0.7,0.2c-0.6,0.3-1.2,0.7-1.6,1.3c-0.1,0.1-0.2,0.3-0.3,0.4
      c0,0,0,0,0,0l0,0c-0.1,0-0.3,0.1-0.4,0.2c-0.1,0-0.2,0-0.3,0.1c-0.1,0-0.1,0-0.2,0.1l-0.1,0c-0.1,0-0.1,0-0.2,0
      c-0.1,0-0.2,0.1-0.3,0.1c-0.1,0-0.3,0.1-0.5,0.2c-0.2,0.1-0.4,0.2-0.6,0.3c-0.9,0.5-1.7,1.2-2.2,2c-0.5,0.8-0.9,1.7-1.2,2.7
      c-0.1,0.6-0.2,1.2-0.3,1.9c0,0.3,0,0.5,0,0.8c0,0.2,0,0.3,0,0.5c0,1.5,0,3,0.2,4.7c0,0.2,0,0.4,0.1,0.6c0.1,1.1,0.3,2.1,0.5,3.2
      c0.1,0.5,0.2,0.9,0.3,1.3c0.1,0.6,0.3,1.1,0.5,1.7c0.4,1.1,0.8,2.2,1.3,3.3c0.8,1.8,1.8,3.2,2.9,4.5c0.1,0.2,0.3,0.3,0.5,0.5
      c0,0,0,0,0.1,0.1l0,0c0.1,0.1,0.3,0.3,0.4,0.4c0,0,0.1,0.1,0.1,0.1c0,0,0.1,0.1,0.1,0.1l0.1,0.1c0.1,0.1,0.1,0.1,0.2,0.2
      c0.1,0.1,0.1,0.1,0.2,0.2l0.1,0.1c0.1,0.1,0.2,0.1,0.2,0.2c0,0,0.1,0,0.1,0.1c0,0,0,0,0.1,0c0.7,0.5,1.4,1,2.2,1.3
      c0.1,0,0.2,0.1,0.2,0.1l0.1,0.1c0.6,0.3,1.2,0.5,1.8,0.6l0,0c0.1,0,0.3,0.1,0.4,0.1c0.1,0,0.2,0.1,0.4,0.1c0.5,0.1,1.1,0.2,1.7,0.3
      c0.2,0,0.4,0.1,0.5,0.1c1.9,0.3,3.6,0.3,5.2,0.2c0,0,0,0,0.1,0l0,0c0.1,0,0.2,0,0.3,0c1.8-0.2,3.4-0.7,4.8-1.5l0.1-0.1
      c0.9-0.5,1.6-1.1,2.2-1.8c0.4-0.5,0.8-1,1.1-1.5c0.2-0.3,0.3-0.7,0.4-1c0.1-0.3,0.2-0.6,0.2-0.8c0-0.2,0.1-0.4,0.1-0.6
      c0.1-0.4,0.1-0.9,0.1-1.5c0-0.1,0-0.3,0-0.5c0-0.1,0-0.3,0-0.4c-0.1-0.7-0.2-1.3-0.4-1.9c0-0.1-0.1-0.2-0.1-0.3
      c-0.3-0.9-0.7-1.6-1.2-2.3c-0.1-0.2-0.3-0.4-0.4-0.5c-0.2-0.2-0.4-0.4-0.5-0.6c-0.1-0.1-0.1-0.1-0.2-0.2c-0.3-0.3-0.6-0.5-1-0.7
      c-0.1-0.1-0.2-0.2-0.4-0.2c-0.7-0.4-1.5-0.7-2.3-0.9c-0.5-0.1-1.1-0.3-1.7-0.3c-0.4,0-0.7-0.1-1.1-0.1c-0.2,0-0.4,0-0.6,0l-0.1,0
      l-0.2,0c-0.2,0-0.3,0-0.5,0c-0.3,0-0.5,0-0.8,0.1c0.2-0.5,0.3-1,0.4-1.5c0-0.2,0.1-0.5,0.1-0.7c0.3-0.1,0.6-0.2,0.9-0.2
      c1.5-0.4,3.1-0.9,4.6-1.5c0,0,0.1,0.1,0.1,0.1c0.8,0.9,1.6,1.7,2.5,2.4c1.1,0.9,2.2,1.6,3.4,2.2L33,129l0.4-0.1
      c0.2,0,0.7-0.2,1.6-0.5c2.2-0.8,6.3-2.7,9.8-6.4c0.1,0.1,0.3,0.1,0.4,0.2l0.2,0.1c0.1,0,0.1,0.1,0.2,0.1c0.3,0.1,0.5,0.2,0.7,0.4
      c0.1,0,0.1,0.1,0.2,0.1c0.1,0.1,0.2,0.1,0.3,0.2l0.6,0.4c0.2,0.2,0.5,0.3,0.7,0.5l0.1,0.1c0.1,0,0.1,0.1,0.2,0.1l0.1,0
      c0.2,0.1,0.3,0.2,0.5,0.3l0.2,0.1c1.1,0.8,2.2,1.7,3.5,2.8c0.6,0.5,1.2,1.1,1.9,1.7l0.1,0.1c0.6,0.6,1.3,1.2,1.9,1.8l0.5,0.5
      l0.6-0.2c0.1,0,0.3-0.1,0.4-0.1c0.1,0,0.2-0.1,0.3-0.1l0,0c0.2-0.1,0.4-0.1,0.6-0.2l0.1,0c0,0,0,0,0,0l0.1,0c0,0,0.1,0,0.1-0.1
      c0.1-0.1,0.3-0.1,0.4-0.2l0.1,0c0,0,0.1,0,0.1-0.1c0.1-0.1,0.3-0.1,0.4-0.2c0.5-0.3,1.1-0.6,1.6-0.9c0.2-0.1,0.3-0.2,0.5-0.3
      c0.8,0.7,2.2,2.1,3.7,3.9l-0.1,0.2c-0.1,0.1-0.1,0.2-0.2,0.3c-1.9,3.1-1.3,5.3-0.4,6.6c0,0.1,0.1,0.1,0.1,0.2l0,0.1
      c0,0,0.1,0.1,0.1,0.1c0.5,0.7,1.3,1.2,2.1,1.5c0,0,0,0,0,0.1c0,0.2,0.1,0.4,0.1,0.6c0.1,0.5,0.3,0.9,0.6,1.3c0,0.1,0.1,0.1,0.1,0.2
      c0.1,0.1,0.2,0.2,0.2,0.3c0.1,0.2,0.3,0.3,0.5,0.5l0,0c0,0,0.1,0,0.1,0.1c0.1,0.1,0.2,0.1,0.3,0.2c0.1,0,0.1,0.1,0.2,0.1
      c0.2,0.2,0.5,0.3,0.7,0.4c0.1,0.1,0.2,0.1,0.3,0.2c1.4,0.6,2.9,1,4.6,1c0.2,0,0.5,0,0.7,0c0.7,0,1.4-0.1,2.1-0.3
      c1-0.2,2.1-0.5,3.1-0.9c0.9-0.4,1.9-0.8,2.8-1.3c0.6-0.3,1.2-0.7,1.8-1.1c0.9-0.6,1.9-1.3,2.8-2.1c0.4-0.4,0.8-0.7,1.2-1.1
      c0.3-0.2,0.5-0.5,0.9-0.8c0.3-0.3,0.7-0.6,1-1c0.3-0.3,0.5-0.5,0.7-0.8c0.4-0.4,0.7-0.8,1-1.1c0.3-0.3,0.6-0.7,0.9-1.1
      c0.5-0.7,1-1.4,1.4-2c0.2-0.4,0.5-0.7,0.7-1.1c0.4-0.7,0.7-1.3,1-2c0.4-0.9,0.8-1.9,1-2.8c0.3-1,0.5-1.9,0.6-2.9
      c0-0.4,0.1-0.9,0.1-1.3C99.3,122.5,99.3,122.2,99.3,121.9z M44.6,121.1L44.6,121.1L44.6,121.1L44.6,121.1z M98.7,122.9
      c0,0.4,0,0.8-0.1,1.2c-0.1,1-0.3,1.9-0.5,2.8c-0.3,0.9-0.6,1.8-1,2.7c-0.3,0.7-0.6,1.3-1,2c-0.2,0.4-0.4,0.7-0.7,1.1
      c-0.4,0.7-0.9,1.3-1.4,2c-0.3,0.4-0.6,0.7-0.9,1.1c-0.3,0.4-0.6,0.7-1,1.1c-0.2,0.3-0.5,0.5-0.7,0.8c-0.3,0.3-0.6,0.6-0.9,0.9
      c-0.3,0.3-0.6,0.5-0.9,0.8c-0.4,0.4-0.8,0.7-1.2,1.1c-0.9,0.7-1.8,1.4-2.7,2.1c-0.6,0.4-1.1,0.7-1.7,1c-0.9,0.5-1.8,0.9-2.8,1.3
      c-1,0.4-2,0.7-3,0.9c-0.6,0.1-1.3,0.2-2,0.3c-1.7,0.1-3.5-0.1-5.1-0.9c-0.1,0-0.2-0.1-0.3-0.2c-0.2-0.1-0.4-0.2-0.7-0.4
      c-0.1,0-0.1-0.1-0.2-0.1c-0.1-0.1-0.2-0.1-0.3-0.2c0,0-0.1-0.1-0.1-0.1c-0.2-0.1-0.3-0.3-0.4-0.4c-0.1-0.1-0.1-0.2-0.2-0.2
      c0-0.1-0.1-0.1-0.1-0.2c-0.2-0.3-0.4-0.7-0.5-1.1c0-0.2-0.1-0.3-0.1-0.5c0-0.1,0-0.1,0-0.2c0-0.1,0-0.2,0-0.3
      c-0.5-0.1-0.9-0.3-1.3-0.5c-0.4-0.2-0.7-0.5-1-0.9c0,0-0.1-0.1-0.1-0.1c0-0.1-0.1-0.1-0.1-0.2c-0.8-1.2-1.3-3.1,0.4-5.9
      c0.1-0.1,0.1-0.2,0.2-0.3c0-0.1,0.1-0.1,0.1-0.2c0.1-0.1,0.1-0.2,0.2-0.3c-1.9-2.5-3.7-4.1-4.4-4.7c0,0,0,0-0.1,0
      c-0.3,0.2-0.5,0.3-0.8,0.5c-0.5,0.3-1,0.6-1.5,0.8c-0.1,0.1-0.3,0.1-0.4,0.2c-0.1,0-0.1,0.1-0.2,0.1c-0.1,0.1-0.3,0.1-0.4,0.2
      c-0.1,0-0.2,0.1-0.2,0.1c0,0,0,0,0,0c-0.2,0.1-0.4,0.2-0.6,0.2c0,0,0,0,0,0c-0.1,0-0.2,0.1-0.3,0.1c-0.1,0-0.2,0.1-0.3,0.1l-0.1,0
      l-0.1,0l-0.2-0.2c-0.6-0.6-1.3-1.2-1.9-1.8c0,0-0.1-0.1-0.1-0.1c-0.6-0.6-1.3-1.1-1.9-1.7c-1.1-1-2.3-1.9-3.5-2.8
      c-0.2-0.2-0.4-0.3-0.6-0.5c-0.1-0.1-0.2-0.1-0.2-0.2c-0.3-0.2-0.6-0.4-0.9-0.6l-0.4-0.3l-0.1-0.1c-0.2-0.1-0.4-0.2-0.6-0.3
      c-0.3-0.2-0.5-0.3-0.8-0.4c0,0-0.1,0-0.1-0.1c-0.1,0-0.2-0.1-0.2-0.1c0,0,0,0,0,0c-0.3-0.1-0.5-0.2-0.8-0.4c0,0,0,0-0.1,0
      c-0.1,0.1-0.2,0.2-0.2,0.3c-3.4,3.7-7.5,5.6-9.6,6.4c-0.9,0.3-1.4,0.5-1.5,0.5l-0.1,0l-0.1,0l-0.2-0.1c-1.2-0.6-2.3-1.3-3.3-2.1
      c-0.9-0.7-1.7-1.5-2.4-2.3c-0.1-0.2-0.3-0.3-0.4-0.5c-1.8,0.7-3.5,1.2-4.9,1.6c-0.5,0.1-0.9,0.2-1.3,0.3c0,0.4,0,0.8-0.1,1.1
      c-0.1,0.9-0.4,1.6-0.8,2.2c0,0-0.1,0.1-0.1,0.1c0,0,0,0-0.1,0.1c0,0-0.1,0.1-0.1,0.1c0.2,0,0.3-0.1,0.5-0.1c0.1,0,0.2,0,0.3-0.1
      c0.4-0.1,0.9-0.1,1.3-0.1c0.2,0,0.3,0,0.5,0c0.1,0,0.1,0,0.2,0c0.2,0,0.4,0,0.7,0c0.3,0,0.7,0,1,0.1c0.5,0.1,1,0.2,1.6,0.3
      c0.7,0.2,1.4,0.5,2.1,0.9c0.1,0.1,0.2,0.1,0.3,0.2c0.3,0.2,0.6,0.4,0.9,0.7c0.1,0.1,0.1,0.1,0.2,0.2c0.2,0.2,0.3,0.3,0.5,0.5
      c0.1,0.2,0.3,0.3,0.4,0.5c0.5,0.7,0.8,1.4,1.1,2.1c0,0.1,0.1,0.2,0.1,0.2c0.2,0.6,0.3,1.2,0.4,1.7c0,0.3,0.1,0.6,0.1,0.9
      c0,0.4,0,0.9-0.1,1.3c0,0.2-0.1,0.4-0.1,0.6c-0.1,0.3-0.1,0.5-0.2,0.8c-0.1,0.3-0.2,0.6-0.4,0.9c-0.3,0.5-0.6,1-1,1.4
      c-0.6,0.7-1.3,1.2-2,1.7c0,0-0.1,0-0.1,0.1c-1.4,0.8-3,1.3-4.5,1.4c-0.1,0-0.2,0-0.3,0c0,0,0,0,0,0c-1.7,0.2-3.4,0.1-5.1-0.2
      c-0.2,0-0.4-0.1-0.5-0.1c-0.5-0.1-1.1-0.2-1.6-0.3c-0.1,0-0.2-0.1-0.4-0.1c-0.1,0-0.3-0.1-0.4-0.1c-0.6-0.2-1.2-0.4-1.7-0.6
      c-0.1,0-0.2-0.1-0.3-0.1c-0.7-0.4-1.4-0.8-2.1-1.3c0,0-0.1-0.1-0.1-0.1c-0.1-0.1-0.2-0.1-0.3-0.2c-0.1-0.1-0.2-0.1-0.2-0.2
      c-0.1-0.1-0.2-0.1-0.2-0.2c-0.1-0.1-0.2-0.1-0.2-0.2c-0.1-0.1-0.3-0.2-0.4-0.4c0,0-0.1-0.1-0.1-0.1c-0.2-0.2-0.3-0.3-0.4-0.5
      c-1.1-1.3-2.1-2.8-2.8-4.3c-0.5-1-0.9-2.1-1.2-3.2c-0.2-0.5-0.3-1.1-0.5-1.6c-0.1-0.4-0.2-0.9-0.3-1.3c-0.2-1-0.4-2.1-0.5-3.1
      c0-0.2,0-0.4-0.1-0.6c-0.2-1.5-0.2-3.1-0.2-4.6c0-0.2,0-0.3,0-0.5c0-0.2,0-0.5,0-0.7c0-0.6,0.1-1.2,0.3-1.8
      c0.2-0.9,0.6-1.7,1.1-2.5c0.5-0.7,1.2-1.4,2-1.8c0.2-0.1,0.4-0.2,0.5-0.3c0.1-0.1,0.3-0.1,0.4-0.2c0.1,0,0.2-0.1,0.3-0.1
      c0.1,0,0.1,0,0.2-0.1c0.1,0,0.1,0,0.2,0c0.1,0,0.2,0,0.3-0.1c0.1,0,0.1,0,0.2,0c0.1,0,0.1,0,0.2,0c0.1,0,0.1,0,0.2,0c0,0,0,0,0.1,0
      c0.2-0.3,0.3-0.5,0.5-0.8c0.4-0.5,0.9-0.8,1.4-1.1c0.2-0.1,0.4-0.2,0.6-0.2c0.9-0.2,2-0.3,3.3,0.4c0.7,0.4,1.4,1,2.1,1.8
      c0.2,0.2,0.4,0.5,0.5,0.7c1.4-0.3,3-0.7,4.7-1.2c0-0.1-0.1-0.2-0.1-0.3c0,0,0,0,0,0c0,0,0,0,0,0c-0.5-1.8-0.6-3.1-0.6-3.1l0-0.4
      l0.4-0.1c0,0,1.1-0.3,2.5-0.8c1.4-0.5,3.2-1.4,4.5-2.5c-0.1-0.3-0.1-0.7-0.2-1c-0.1-0.6-0.1-1.2-0.1-1.8c0-0.1,0-0.3,0-0.4
      c0-0.3,0-0.6,0-0.9c-2.9-0.7-5.9-3-7-6.5c-0.1-0.3-0.2-0.5-0.2-0.8c0-0.1-0.1-0.6-0.2-1.5c-0.1-0.8-0.2-1.8-0.1-2.8
      C19.9,88.3,19,87,18,85.7c-0.1-0.2-0.2-0.3-0.3-0.5c0-0.1-0.1-0.1-0.1-0.2c-0.2-0.2-0.4-0.5-0.5-0.7c0,0,0-0.1-0.1-0.1
      c-4.5-6.2-3.5-9.6-3.2-10.8c0.4-1.5,1.8-3.4,6-4.8c0.9-0.3,1.9-0.6,3.1-0.8c0.6-0.1,1.3-0.2,2-0.3c2.5-0.4,5.1-0.5,7.5-0.4
      c0.4,0,0.7,0,1.1,0.1c0.2-0.4,0.8-1.1,1.9-1.3c0.3,0,0.6-0.1,0.9,0c0.1,0,0.2,0,0.4,0c1.5,0.2,4.9,1,8.4,1.9
      c0.2,0.1,0.5,0.1,0.7,0.2c-0.2-0.2-0.4-0.4-0.5-0.6c-0.9-1.1-1.7-2.2-2.5-3.5c-0.1,0.5-0.4,1.2-1.1,1.4c-0.1,0-0.3,0.1-0.4,0.1
      c-0.7,0-1-0.5-1.2-1c0,0,0,0,0,0c0,0,0-0.1,0-0.1c0-0.1,0-0.2-0.1-0.3c-0.1-0.6,0-1.3,0.1-1.8c0-0.1,0-0.2,0-0.3
      c0,0-0.1,0.1-0.1,0.3c0,0,0,0,0,0c0,0,0,0,0,0c-0.2,0.3-0.4,0.7-0.8,0.8c-0.1,0.1-0.3,0.1-0.5,0.1c-0.5-0.1-0.9-0.4-0.9-0.9
      c0,0,0,0,0,0c0,0,0,0,0,0c0-0.3,0.1-0.8,0.4-1.3c0,0-1,0.2-1.3-0.4c0,0,0-0.1-0.1-0.2c-0.1-0.5,0.3-0.8,0.7-1.1
      c0.1-0.1,0.3-0.2,0.4-0.4c-0.1,0-0.2,0-0.4-0.1c-0.2,0-0.3-0.1-0.5-0.1c-0.1,0-0.3-0.1-0.4-0.1c-0.4-0.2-0.8-0.3-1.2-0.6
      c-0.3-0.1-0.5-0.3-0.7-0.5c0,0,0,0,0,0c-0.2-0.2-0.5-0.4-0.7-0.6c-0.3-0.3-0.6-0.6-0.8-1c-0.1-0.2-0.2-0.3-0.3-0.5l-0.1-0.2
      l-0.1-0.2l0-0.1l0-0.1l0-0.1l0-0.1c0-0.1,0-0.1-0.1-0.2c0-0.1,0-0.2-0.1-0.2c0,0,0-0.1,0-0.1c0-0.1,0-0.2-0.1-0.4c0,0,0-0.1,0-0.1
      c-0.1-0.6,0-1.2,0.2-1.8c0.2-0.6,0.5-1.2,1-1.7c0.5-0.5,1.1-0.8,1.8-0.9c0,0,0.1,0,0.1,0c0.3,0,0.5,0,0.8,0c-1.1-2.3-1.1-4.1-1-5.1
      c0-0.4,0.1-0.6,0.2-0.7c-0.1-0.1-0.2-0.4-0.4-0.8c-0.4-0.8-0.8-2.1-1-3.8c-0.1-0.6-0.1-1.2-0.1-1.9c0-1.1,0.2-2.3,0.6-3.6
      c0.3-1.1,0.7-2.2,1.4-3.4c-1.4-1-2.2-2.7-2.2-4.7c0-1.8,0.8-3.4,1.9-4.8c-0.1-0.3-0.1-0.6,0-1c0-0.1,0.1-0.2,0.2-0.3c0,0,0,0,0,0
      c0,0,0,0,0,0c0-0.1,0.1-0.1,0.2-0.2c0.1,0,0.1-0.1,0.2-0.1c0.1-0.1,0.3-0.2,0.4-0.2c0.3-0.1,0.6-0.1,0.8,0c0,0,0,0,0,0
      c0.1,0,0.2,0.1,0.3,0.1c2-1.1,3.7-1.1,5.1-0.7c0.1,0,0.2,0.1,0.3,0.1c0.2,0.1,0.5,0.2,0.7,0.3c1.1,0.5,1.8,1.3,2.2,1.7
      c0.1-0.1,0.2-0.2,0.3-0.4c0.7-0.9,2.3-2.8,4.3-4.1c0.8-0.5,1.5-0.8,2.1-1c0.7-0.2,1.2-0.2,1.7-0.1c0.4,0.1,0.7,0.2,0.9,0.5
      c0.1,0.1,0.2,0.3,0.2,0.4c0.2,0.5,0,1.3-0.8,2.5c0.9-0.1,1.7-0.2,2.3-0.3c0.8-0.1,2.1-0.2,2.6-0.3c1-0.2,1.8-0.5,2.5-0.8
      c2.2-1,3.1-2.3,3.3-2.9c0.1-0.2,0.2-0.4,0.2-0.6c0.1-0.4,0.1-0.8-0.1-1.1c-0.1-0.2-0.2-0.3-0.4-0.5c-0.3-0.2-0.6-0.3-1-0.3
      c-0.4,0-0.7,0.1-1.1,0.2c-0.4,0.2-0.7,0.4-1,0.8c-0.1,0.2-0.3,0.3-0.4,0.5c-0.3,0.4-0.5,0.7-0.8,0.9c-0.6,0.6-1.2,0.7-1.5,0.7
      c-0.1,0-0.2,0-0.2,0c-0.3,0-0.5-0.2-0.7-0.4c-0.2-0.3-0.3-0.7-0.3-1c0-0.2,0-0.3,0-0.5c0.1-1,0.4-2,0.9-3c0.8-1.5,2-2.9,3.6-3.8
      c0.3-0.2,0.6-0.3,0.9-0.5c2.5-1.2,5.4-1.3,8-0.4c2.6,1,4.5,2.8,5.4,5.1c0.5,1.3,0.7,2.9,0.6,4.4c-0.1,0.6-0.2,1.3-0.3,1.9
      c0,0.1-0.1,0.3-0.1,0.4c0,0,0,0.1,0,0.1c0,0.1-0.1,0.2-0.1,0.3c0,0,0,0.1,0,0.1c0,0.1-0.1,0.2-0.1,0.4c0,0,0,0,0,0
      c-0.1,0.1-0.1,0.3-0.2,0.4c-1.3,2.9-4,5.2-7.3,6.4c-2.2,0.8-4,0.7-5.2,0.5l0,0c-1-0.2-2.8-0.5-4.5-0.3c-4,0.5-6.8,2.3-8.9,5.7
      c-3.2,4.9-1.7,11.8-1.2,13.3c0.1,0.3,0.3,0.7,0.5,1.1c0.6,1.2,1.2,2.5,0.6,3.4c-0.2,0.4-0.5,0.5-0.8,0.6c-0.2,0-0.4-0.1-0.6-0.2
      c0.7,2.7,0.4,4.8-0.8,5.3c-0.3,0.1-0.6,0.1-0.8,0c-0.4-0.2-0.6-0.7-0.8-1.1c-0.1,1.1-0.5,1.9-1,2.3c-0.3,0.2-0.6,0.3-1,0.3
      c-0.2,0-0.4,0-0.6-0.1c-0.9-0.3-1.1-1.6-1.1-2.6c-0.2,0-0.3,0-0.5,0c-0.3,0-0.6-0.1-0.9-0.1c-0.6-0.1-1.1-0.2-1.7-0.4
      c-0.6-0.2-1.1-0.4-1.6-0.6L38,51.1L37.8,51l-0.4-0.2c-0.2-0.1-0.4-0.2-0.7-0.3c-0.4-0.1-0.9-0.2-1.3-0.1c-0.4,0.1-0.8,0.3-1.1,0.6
      c-0.3,0.3-0.5,0.7-0.7,1.1c-0.1,0.4-0.2,0.9-0.1,1.4c0,0.1,0,0.2,0,0.4c0,0.1,0,0.2,0.1,0.3l0.1,0.2l0.1,0.2l0.1,0.2l0.1,0.2
      c0.2,0.4,0.5,0.8,0.9,1.2c0.4,0.4,0.8,0.7,1.2,0.9c0.4,0.3,0.9,0.5,1.4,0.6c1,0.3,2,0.4,3,0.3c0.5-0.1,1-0.1,1.6-0.2
      c0.5-0.1,1.1-0.2,1.6-0.3c-0.4,0.4-0.9,0.7-1.4,1c-0.3,0.1-0.6,0.3-1,0.4c1.4,3.8,3.5,7.2,6.3,9.9c0.5,0.1,1,0.2,1.4,0.4
      c1.4,0.4,2.7,0.7,3.7,0.9c4.2,1.1,5.9,2.2,7,3.5c0,0,0.1,0,0.1,0c2.2,0.5,3.4,1.6,3.8,2c0.1,0,0.1,0,0.2,0c2.7-0.1,5.4-0.6,7.9-1.7
      c-4.4,1-8-0.8-8-0.8c5.6,1.2,10.1-0.5,12.1-1.5c0.2-0.1,0.8-0.5,0.9-0.6c1.3-1,2.6-2.2,3.7-3.5c4.5-5.1,6.9-12,6.9-19.2
      c0-0.8,0-1.6-0.1-2.4l0,0h0c-0.3-3.5-1.1-6.9-2.6-10.1c-1.3-2.9-3.1-5.5-5.2-7.7c-0.1-0.1-0.2-0.2-0.3-0.2
      c-0.3-0.3-1.5-1.2-2.9-1.6c-0.4-0.2-2.3-0.8-4.3-0.3c-0.4,0.1-1.3,0.4-2.3,0.1c-0.2,0-0.8-0.2-0.8-0.5c0-0.2,0.3-0.5,0.4-0.5
      c6.1-2.3,7.6-6.4,7.6-6.5L77,18l0.2,0.1c1.3,0.6,2.1,1.1,3,1.9c0.9,0.8,1.5,1.7,1.9,2.7c1,2.9-0.4,5.6-0.4,5.7l0,0.1l-0.1,0
      c0,0,0,0,0,0c1.6,2,3.1,4.2,4.1,6.6c0,0.1,0,0.1,0.1,0.2c0.7,1.6,1.3,3.3,1.7,5c0.4,1.4,0.6,2.9,0.8,4.3c0,0.2,0,0.4,0.1,0.7
      c0.7-0.2,1.4-0.3,2,0c0.3,0.1,0.6,0.4,0.8,0.9c0.1,0.1,0.1,0.2,0.1,0.4c0.5,2.2-0.4,4-3.1,5.6c-0.8,5.9-3.1,11.4-6.9,15.7
      c-2.9,3.4-6.5,5.8-10.4,7.2c-1.9,0.7-4,1.1-6.1,1.2c0,0,0,0,0,0c2,3.9,3.2,8,3.5,12.2c0,0.1,0,0.1,0,0.2c0,0,0,0,0,0c0,0,0,0,0,0
      c0.2-0.3,0.5-0.6,0.8-0.8c0.3-0.2,0.6-0.4,0.9-0.6c0.2-0.1,0.4-0.2,0.6-0.2c0.5-0.2,1-0.3,1.4-0.3c0,0,0,0,0,0c0,0,0,0,0,0
      c0.1,0,0.2,0,0.3,0c0.2,0,0.4,0,0.6,0c0-1.3,0.5-2.9,1.5-4.1c0.1-0.1,0.1-0.2,0.2-0.2c0.5-0.5,1-0.9,1.6-1.1
      c0.6-0.3,1.3-0.4,2.1-0.4c1,0,1.8,0.3,2.6,0.8c0.4,0.3,0.8,0.6,1.1,1c0.2,0.2,0.3,0.4,0.4,0.6c0,0,0.1,0,0.1-0.1c0,0,0,0,0,0
      c0,0,0,0,0,0c0.7-0.4,2.1-0.8,3.7,0.1c1.1,0.6,1.8,1.8,2,3.5c0.4,0,1,0.1,1.7,0.6c0.6,0.4,1.2,1.2,1.5,2.4c0.2,0.7,0.3,1.4,0.2,2.1
      c-0.1,1.7-0.9,3.4-2.2,4.8c-0.4,0.4-0.9,0.8-1.4,1c-0.5,0.2-1.1,0.4-1.6,0.4c0,0,0,0.1-0.1,0.1c-0.1,0.1-0.1,0.2-0.2,0.3
      c0,0,0,0,0,0c0,0,0,0,0,0c-0.1,0.2-0.3,0.4-0.5,0.7c-0.1,0.2-0.3,0.3-0.4,0.4c-0.3,0.3-0.5,0.5-0.8,0.7c-0.4,0.3-0.9,0.6-1.4,0.8
      c0,0,0,0-0.1,0c-0.2,0.1-0.3,0.1-0.5,0.2c-0.4,0.1-0.8,0.2-1.2,0.2c-0.1,0-0.2,0-0.4,0c-0.4,0-0.8,0.1-1.3,0c-0.1,0-0.1,0-0.2,0
      c-0.2,0-0.4,0-0.6-0.1c-0.1,0.1-0.1,0.2-0.2,0.3c-0.3,0.3-0.7,0.7-1.3,1c-0.1,0-0.1,0-0.2,0.1c-0.4,0.5-1.6,2.3-3.6,3.9
      c-1.6,1.3-3.5,2.4-5.9,2.8c0.3,0.3,0.5,0.5,0.8,0.8c0.1,0.1,0.3,0.3,0.4,0.4c0.5,0.5,1,1.1,1.5,1.6c0.4,0.5,0.8,1,1.2,1.6
      c0.2,0.2,0.3,0.4,0.5,0.6l0,0l0,0l0,0l0.2,0.4l0.2,0.4l0.1,0.2l0,0.2c0,0,0,0,0,0.1c0,0.1,0,0.1,0,0.2c0,0,0,0.1,0,0.1
      c0,0.1,0,0.2-0.1,0.2c0,0,0,0.1,0,0.1l-0.1,0.3l-0.1,0.3c-0.1,0.2-0.1,0.3-0.2,0.5c-0.1,0.3-0.2,0.5-0.4,0.7
      c-0.1,0.1-0.1,0.2-0.2,0.3c-0.2,0.3-0.3,0.6-0.5,0.9c0.4,0.3,1.1,1,2,2.1c0.9,1.1,2,2.5,3.1,4.3c1.3-0.4,2.4-0.4,3.4-0.1
      c0,0,0.1,0,0.1,0c0,0,0,0,0.1,0c0,0,0,0,0-0.1c0.1-0.1,0.2-0.3,0.3-0.4c0.2-0.2,0.4-0.4,0.6-0.5c0-0.4-0.1-0.7-0.1-1.1
      c0-0.8,0.1-1.7,0.3-2.5c0.1-0.3,0.1-0.5,0.2-0.7c0.5-1.4,1.3-2.7,2.3-3.8c0,0,0.1-0.1,0.1-0.1c0.6-0.6,1.2-1.1,1.9-1.6
      c0.7-0.5,1.5-0.9,2.3-1.2c0.2-0.1,0.5-0.2,0.8-0.2c0.2,0,0.4-0.1,0.5-0.1c0.4-0.1,0.9-0.1,1.3-0.1c0.2,0,0.4,0,0.5,0
      c0.7,0,1.4,0.1,2.1,0.3c1.7,0.5,3.3,1.5,4.3,2.9c0.1,0.2,0.3,0.4,0.4,0.6c0.4,0.6,0.6,1.2,0.8,1.8l0.1,0.2l0,0.2c0,0,0,0,0,0.1
      c0,0.1,0,0.2,0.1,0.3c0,0,0,0,0,0c0.1,0.2,0.1,0.4,0.1,0.6c0,0.1,0,0.1,0,0.2c0,0.1,0,0.3,0,0.4c0,0,0,0,0,0.1c0,0.2,0,0.4,0,0.6
      C98.7,122.2,98.7,122.6,98.7,122.9z M81.8,49.2c0.7,0.9,0.8,2,0.5,3.1c-0.5,1.9-2.6,2.9-6.3,2.9c-0.5,0-1,0-1.6-0.1
      c-0.9-0.1-2-0.3-2.9-1.2c-0.7-0.8-1.2-2-0.9-3.3c0.4-1.5,1.7-2.3,2.3-2.6c0.3-0.1,0.9-0.3,1.5-0.4c0.4-0.1,0.8-0.1,1-0.1
      c0.3,0,0.6,0,0.9-0.1c-0.2-1.6-0.3-3.9-1-6.8c-0.4-1.6-2.3-6.7,1.5-7.1c2.2-0.2,3.5,1.8,4.1,3.7l0.2,0.6l0.2,0.8
      c0.3,1.3,0.4,2.3,0.4,2.3s0.8,5-0.4,7.7C81.6,48.9,81.7,49,81.8,49.2z M79.7,31.5c-0.2,0.4-0.7,0.7-1.2,0.8
      c-0.7,0.2-1.3,0.2-1.8,0.2c-0.8,0-1.6,0.1-2.6,0.6c-0.7,0.3-1.5,0.7-2.2,0.7c-0.2,0-0.4,0-0.6-0.1c-0.3-0.2-0.6-0.5-0.7-0.9
      c-0.1-0.4,0-0.8,0.3-1.2c0.8-1.2,3-2.5,5.6-2.8c3-0.3,3.4,1.3,3.4,1.4C79.9,30.1,80.1,30.8,79.7,31.5z M71.6,44.4
      C71.1,40.3,70,36,70,35.9C72.5,40.5,71.6,44.4,71.6,44.4z M83.8,54.6L83.8,54.6c0.5-0.2,1-0.5,1.4-0.7c0,0-0.4,1-1,1.6
      c-0.2,1.1-1.1,4.5-3.1,7.8c-3.2,5.3-7.9,8-13.6,7.9c-0.1,0-0.2,0-0.2,0C60,71,56.2,66.8,54.4,63.3c-1.4-2.6-1.9-5.1-2.2-6.4
      c-0.8,1.3-1,2.6-1,2.6s-0.6-2.2,0.9-4.1c1.5-1.9,4-2.4,4-2.4s-0.9,0.7-2,1.7c0.6,0.1,1.3,0.4,2,0.7c2.6,1,6.4,2.5,13,2.4
      C78.1,57.6,83.7,54.6,83.8,54.6z M65.2,50.8c0.2,2.5-1.8,2.7-1.8,2.7C64.2,52.7,65.2,50.8,65.2,50.8z M60.7,53.3
      c-3.8,0-2.2-4.2-3.9-11c-0.4-1.7-2.5-6.4,1.5-6.9c2.7-0.3,4,2.4,4.7,4.7l0.2,0.7l0.2,0.9c0.2,0.9,0.2,1.5,0.2,1.5
      S65.3,53.3,60.7,53.3z M63.7,34c-0.6,1.1-1.8,0.9-3.3,0.6c-0.2,0-0.5-0.1-0.8-0.1c-2.1-0.4-3.3-0.2-5.4,0.7
      c-0.6,0.3-1.1,0.4-1.5,0.4c-0.4,0-0.7-0.1-0.9-0.2c-0.5-0.2-0.7-0.5-0.8-0.6c-0.5-0.4-0.6-1.3-0.4-2.2c0.2-0.8,1-2.6,4.1-3.2
      c4.3-0.9,7,0.8,7.1,0.8h0C64.3,31.8,64.2,33.2,63.7,34z M41.3,56.3c-2.8,0.5-5.2-0.7-5.4-2.3c-0.1-1.4,1.1-1.6,2.3-1.1
      c1,0.4,2.9,0.8,2.9,0.8C40.9,55.1,41.3,56.3,41.3,56.3z"/>
    <path d="M16.1,131.8c-0.6,0.5-1.1,1.1-1.6,1.8c0-0.9,0.4-1.7,1-2.4c0.3-0.4,0.7-0.8,1.1-1.1c-2.1,0-4.3-1.7-6.3-4.6
      c-2.2-3.2-3-7.8-2-10.9c0,0,0,0,0,0c-0.2,0-0.3,0.1-0.5,0.1c-0.4,0.1-0.7,0.3-1.1,0.4c-0.7,0.4-1.3,0.9-1.7,1.5
      c-0.4,0.6-0.7,1.4-0.9,2.1c-0.2,0.8-0.2,1.6-0.3,2.4c-0.1,1.6,0,3.3,0.2,4.9c0.2,1.6,0.5,3.3,0.9,4.9c0.4,1.6,0.9,3.2,1.6,4.7
      c0.7,1.5,1.6,2.9,2.6,4.1c1.1,1.2,2.4,2.2,3.8,2.9c0.7,0.3,1.5,0.6,2.3,0.8c0.8,0.2,1.6,0.3,2.4,0.4c1.6,0.2,3.3,0.3,4.9,0.1
      c1.6-0.2,3.2-0.6,4.6-1.4c0.7-0.4,1.3-0.9,1.8-1.5c0.5-0.6,0.9-1.3,1.2-2c0.1-0.4,0.2-0.7,0.3-1.1c0.1-0.4,0.1-0.8,0-1.2
      c0-0.8-0.2-1.6-0.4-2.3c-0.2-0.8-0.6-1.5-1-2.1c-0.5-0.6-1-1.2-1.7-1.6c-0.7-0.4-1.4-0.7-2.2-0.9c-0.8-0.2-1.6-0.3-2.4-0.3
      c-1.6,0-3.2,0.2-4.6,0.8C17.3,130.8,16.7,131.3,16.1,131.8z"/>
    <path d="M54.7,31.6c0.1,0,3.3-1,6.4,0.2C61.1,31.8,58,29.5,54.7,31.6z"/>
    <path d="M34.8,115.9c-1.4-1.1-2.8-2.4-3.8-3.9c-0.5-0.8-1-1.6-1.3-2.5c-0.3-0.8-0.6-1.7-0.8-2.6c0,0,0,0,0,0
      c-2.3,1.8-5.5,2.8-6.6,3.1c0.1,1,0.6,3.6,1.8,6.6c1.4,3.4,4.1,8,9.1,10.6c1-0.3,6.3-2,10.5-6.5c-1.4-0.6-2.8-1.2-4.2-2
      C37.8,117.9,36.2,117,34.8,115.9z"/>
    <path d="M17.6,125.8c-0.1,0.4-0.2,0.8-0.3,1c-0.2,0.2-0.3,0.3-0.6,0.3h0c-0.8,0-2.3-0.9-4-3.4
      c-0.8-1.2-1.5-2.8-1.7-4.5c-0.3-1.5-0.2-3,0.1-3.9c0.2-0.6,0.5-1,0.9-1.1c0.6-0.2,1.3,0.1,2,0.8c0.6-0.1,1.4-0.3,2.2-0.4
      c-0.1-0.1-0.2-0.2-0.3-0.4c-1.4-1.7-2.9-2.3-4.4-1.9c-1,0.3-1.8,1.1-2.2,2.3c0,0.1,0,0.1-0.1,0.2c-0.9,2.8-0.1,7.1,1.9,10
      c1.8,2.7,3.8,4.2,5.5,4.2c0,0,0,0,0,0c0.9,0,1.7-0.4,2.2-1.2c0.4-0.6,0.7-1.5,0.7-2.5c-0.4,0.1-0.8,0.2-1.2,0.2
      C18.1,125.7,17.8,125.8,17.6,125.8z"/>
    <path d="M22.1,114.2c-3.9,1.2-7.4,1.8-9.1,2.1c-0.6,1.9-0.3,4.6,1.2,6.9c0.5,0.7,1.3,1.4,1.9,1.9
      c0.4-0.1,1.3-0.2,2-0.3c1.5-0.3,4.5-0.9,8-2.3c-1.4-1.9-2.4-3.8-3.1-5.5C22.7,116,22.4,115,22.1,114.2z"/>
  </symbol>

</svg>
