<svg viewBox="0 0 100 100" xmlns="http://www.w3.org/2000/svg" style="display: none;">

  <symbol viewBox="0 0 534 90.1" id="shape-logo">
    <path d="M44.1,90.6C17.9,90.6,0,71.4,0,45.3C0,19,17.9,0,44.1,0s44.3,19,44.3,45.3C88.4,71.4,70.4,90.6,44.1,90.6z M44.1,24.1
      c-9.7,0-16.3,8-16.3,21.1s6.6,21.1,16.3,21.1s16.4-8,16.4-21.1S53.9,24.1,44.1,24.1z"/>
    <path d="M95.1,1.4h35.3c28.4,0,45.1,17.1,45.1,43.9c0,26.7-16.7,43.9-45.1,43.9H95.1V1.4z M129,65.4c12.3,0,19.3-7.9,19.3-20.1
      c0-12.4-7-20.3-19.3-20.3h-6.7v40.4H129z"/>
    <path d="M182.3,1.4h35.3c28.4,0,45.1,17.1,45.1,43.9c0,26.7-16.7,43.9-45.1,43.9h-35.3V1.4z M216.1,65.4c12.3,0,19.3-7.9,19.3-20.1
      c0-12.4-7-20.3-19.3-20.3h-6.7v40.4H216.1z"/>
    <path d="M281.3,43.9c-6.4-2.3-11.9-9.1-11.9-18.6c0-15.7,10.6-23.9,28.9-23.9H340v87.7h-44.1c-18.3,0-28.9-8.7-28.9-24.3
      C267,54.7,273,46.6,281.3,43.9z M313.9,35V23.7h-11.6c-4.6,0-7.1,1.9-7.1,5.6c0,3.7,2.6,5.7,7.1,5.7H313.9z M313.9,54.9h-13.4
      c-4.4,0-7,2.3-7,6c0,3.4,2.6,5.9,7,5.9h13.4V54.9z"/>
    <path d="M390.8,90.6c-26.3,0-44.1-19.1-44.1-45.3C346.7,19,364.6,0,390.8,0c26.3,0,44.3,19,44.3,45.3
      C435.1,71.4,417.1,90.6,390.8,90.6z M390.8,24.1c-9.7,0-16.3,8-16.3,21.1s6.6,21.1,16.3,21.1c9.7,0,16.4-8,16.4-21.1
      S400.6,24.1,390.8,24.1z"/>
    <path d="M490.7,1.4h28.9l-31.4,58.9v28.9h-27.9V60.3l-31-58.9h30L475,32.7L490.7,1.4z"/>
    <path d="M518.7,59.3c8.6,0,15.3,6.6,15.3,15.4c0,8.7-6.7,15.4-15.3,15.4c-8.4,0-15.1-6.7-15.1-15.4
      C503.6,65.9,510.3,59.3,518.7,59.3z"/>
  </symbol>

  <symbol viewBox="0 0 1738.7 490" id="shape-arrow">
    <polygon points="1738.7,245.1 1738.6,245 1738.7,244.9 1493.6,0 1468.2,25.5 1669.2,226.5 0,226.5 0,262.5 1670.2,262.5
      1468.2,464.5 1493.6,490 "/>
  </symbol>

  <symbol viewBox="0 0 927.7 1612" id="shape-scroll-cta">
    <polygon points="355.9,1154.9 383.3,1127.5 451,1195.2 451,0 489.8,0 489.8,1195.2 557.5,1127.5 584.9,1154.9 470.4,1269.4 "/>
    <path d="M891.2,967.6c-23.4-55.2-56.8-104.8-99.4-147.4c-42.6-42.6-92.2-76-147.4-99.4c-23.7-10-48-18-72.8-23.9v35
      c20.3,5.2,40.1,12,59.6,20.2c51.2,21.6,97.2,52.6,136.6,92.1s70.5,85.5,92.1,136.6c22.4,53,33.8,109.3,33.8,167.3
      s-11.4,114.3-33.8,167.3c-21.6,51.2-52.6,97.2-92.1,136.6s-85.5,70.5-136.6,92.1c-53,22.4-109.3,33.8-167.3,33.8
      c-58,0-114.3-11.4-167.3-33.8c-51.2-21.6-97.2-52.6-136.6-92.1s-70.5-85.5-92.1-136.6c-22.4-53-33.8-109.3-33.8-167.3
      s11.4-114.3,33.8-167.3c21.6-51.2,52.6-97.2,92.1-136.6s85.5-70.5,136.6-92.1c23.6-10,47.9-17.8,72.7-23.3V694
      c-29.3,6.1-58,15-85.9,26.8c-55.2,23.4-104.8,56.8-147.4,99.4s-76,92.2-99.4,147.4C12.3,1024.8,0,1085.5,0,1148.2
      s12.3,123.4,36.5,180.6c23.4,55.2,56.8,104.8,99.4,147.4c42.6,42.6,92.2,76,147.4,99.4c57.2,24.2,117.9,36.5,180.6,36.5
      c62.6,0,123.4-12.3,180.6-36.5c55.2-23.4,104.8-56.8,147.4-99.4c42.6-42.6,76-92.2,99.4-147.4c24.2-57.2,36.5-117.9,36.5-180.6
      S915.4,1024.8,891.2,967.6z"/>
  </symbol>

</svg>
