<svg viewBox="0 0 100 100" xmlns="http://www.w3.org/2000/svg" style="display: none;">

  <symbol viewBox="0 0 534 90.1" id="shape-logo">
    <path d="M44.1,90.6C17.9,90.6,0,71.4,0,45.3C0,19,17.9,0,44.1,0s44.3,19,44.3,45.3C88.4,71.4,70.4,90.6,44.1,90.6z M44.1,24.1
      c-9.7,0-16.3,8-16.3,21.1s6.6,21.1,16.3,21.1s16.4-8,16.4-21.1S53.9,24.1,44.1,24.1z"/>
    <path d="M95.1,1.4h35.3c28.4,0,45.1,17.1,45.1,43.9c0,26.7-16.7,43.9-45.1,43.9H95.1V1.4z M129,65.4c12.3,0,19.3-7.9,19.3-20.1
      c0-12.4-7-20.3-19.3-20.3h-6.7v40.4H129z"/>
    <path d="M182.3,1.4h35.3c28.4,0,45.1,17.1,45.1,43.9c0,26.7-16.7,43.9-45.1,43.9h-35.3V1.4z M216.1,65.4c12.3,0,19.3-7.9,19.3-20.1
      c0-12.4-7-20.3-19.3-20.3h-6.7v40.4H216.1z"/>
    <path d="M281.3,43.9c-6.4-2.3-11.9-9.1-11.9-18.6c0-15.7,10.6-23.9,28.9-23.9H340v87.7h-44.1c-18.3,0-28.9-8.7-28.9-24.3
      C267,54.7,273,46.6,281.3,43.9z M313.9,35V23.7h-11.6c-4.6,0-7.1,1.9-7.1,5.6c0,3.7,2.6,5.7,7.1,5.7H313.9z M313.9,54.9h-13.4
      c-4.4,0-7,2.3-7,6c0,3.4,2.6,5.9,7,5.9h13.4V54.9z"/>
    <path d="M390.8,90.6c-26.3,0-44.1-19.1-44.1-45.3C346.7,19,364.6,0,390.8,0c26.3,0,44.3,19,44.3,45.3
      C435.1,71.4,417.1,90.6,390.8,90.6z M390.8,24.1c-9.7,0-16.3,8-16.3,21.1s6.6,21.1,16.3,21.1c9.7,0,16.4-8,16.4-21.1
      S400.6,24.1,390.8,24.1z"/>
    <path d="M490.7,1.4h28.9l-31.4,58.9v28.9h-27.9V60.3l-31-58.9h30L475,32.7L490.7,1.4z"/>
    <path d="M518.7,59.3c8.6,0,15.3,6.6,15.3,15.4c0,8.7-6.7,15.4-15.3,15.4c-8.4,0-15.1-6.7-15.1-15.4
      C503.6,65.9,510.3,59.3,518.7,59.3z"/>
  </symbol>

  <symbol viewBox="0 0 1738.7 490" id="shape-arrow">
    <polygon points="1738.7,245.1 1738.6,245 1738.7,244.9 1493.6,0 1468.2,25.5 1669.2,226.5 0,226.5 0,262.5 1670.2,262.5
      1468.2,464.5 1493.6,490 "/>
  </symbol>

  <symbol viewBox="0 0 927.7 1612" id="shape-scroll-cta">
    <polygon points="355.9,1154.9 383.3,1127.5 451,1195.2 451,0 489.8,0 489.8,1195.2 557.5,1127.5 584.9,1154.9 470.4,1269.4 "/>
    <path d="M891.2,967.6c-23.4-55.2-56.8-104.8-99.4-147.4c-42.6-42.6-92.2-76-147.4-99.4c-23.7-10-48-18-72.8-23.9v35
      c20.3,5.2,40.1,12,59.6,20.2c51.2,21.6,97.2,52.6,136.6,92.1s70.5,85.5,92.1,136.6c22.4,53,33.8,109.3,33.8,167.3
      s-11.4,114.3-33.8,167.3c-21.6,51.2-52.6,97.2-92.1,136.6s-85.5,70.5-136.6,92.1c-53,22.4-109.3,33.8-167.3,33.8
      c-58,0-114.3-11.4-167.3-33.8c-51.2-21.6-97.2-52.6-136.6-92.1s-70.5-85.5-92.1-136.6c-22.4-53-33.8-109.3-33.8-167.3
      s11.4-114.3,33.8-167.3c21.6-51.2,52.6-97.2,92.1-136.6s85.5-70.5,136.6-92.1c23.6-10,47.9-17.8,72.7-23.3V694
      c-29.3,6.1-58,15-85.9,26.8c-55.2,23.4-104.8,56.8-147.4,99.4s-76,92.2-99.4,147.4C12.3,1024.8,0,1085.5,0,1148.2
      s12.3,123.4,36.5,180.6c23.4,55.2,56.8,104.8,99.4,147.4c42.6,42.6,92.2,76,147.4,99.4c57.2,24.2,117.9,36.5,180.6,36.5
      c62.6,0,123.4-12.3,180.6-36.5c55.2-23.4,104.8-56.8,147.4-99.4c42.6-42.6,76-92.2,99.4-147.4c24.2-57.2,36.5-117.9,36.5-180.6
      S915.4,1024.8,891.2,967.6z"/>
  </symbol>

  <symbol viewBox="0 0 472.9 207.7" id="shape-gamepad">
    <path d="M368.6,0H103.9C46.4,0,0,46.4,0,103.9s46.4,103.9,103.9,103.9c39.6,0,225.6,0,265.2,0c57.5,0,103.9-46.4,103.9-103.9
      C472.4,46.4,426,0,368.6,0z M143.9,118.8h-29.5v29.5H85v-29.5H55.6V89.4H85V59.9h29.5v29.5h29.5V118.8z M338.6,122.2
      c-8.7,0-15.5-7.2-15.5-15.5s7.2-15.5,15.5-15.5c8.7,0,15.5,7.2,15.5,15.5S347.3,122.2,338.6,122.2z M352.1,72.5
      c0-8.7,7.2-15.5,15.5-15.5c8.7,0,15.5,7.2,15.5,15.5s-7.2,15.5-15.5,15.5C358.9,88.4,352.1,81.2,352.1,72.5z M372.4,151.2
      c-8.7,0-15.5-7.2-15.5-15.5s7.2-15.5,15.5-15.5c8.7,0,15.5,7.2,15.5,15.5S381.1,151.2,372.4,151.2z M401.4,117.4
      c-8.7,0-15.5-7.2-15.5-15.5s7.2-15.5,15.5-15.5c8.7,0,15.5,7.2,15.5,15.5S410.1,117.4,401.4,117.4z"/>
  </symbol>

  <symbol viewBox="0 0 563.8 338.3" id="shape-vr-gear">
    <path d="M552.5,0H11.3C5,0,0,5,0,11.3V327c0,6.3,5,11.3,11.3,11.3h206.1c5,0,9.4-3.1,10.6-7.5l28.2-85.8c8.1-24.4,42.6-24.4,50.7,0
      l28.8,85.8c1.3,4.4,5.6,7.5,10.6,7.5h206.1c6.3,0,11.3-5,11.3-11.3V11.3C563.8,5,558.8,0,552.5,0z M140.9,225.5
      c-31.3,0-56.4-25.1-56.4-56.4s25.1-56.4,56.4-56.4s56.4,25.1,56.4,56.4S172.3,225.5,140.9,225.5z M422.9,225.5
      c-31.3,0-56.4-25.1-56.4-56.4s25.1-56.4,56.4-56.4s56.4,25.1,56.4,56.4S454.2,225.5,422.9,225.5z"/>
  </symbol>

  <symbol viewBox="0 0 499.1 499.1" id="shape-atom">
    <path d="M487,117.1c-22.3-31.8-71.4-43.6-132.4-36.6C328.9,30.8,291.6,0,249.6,0c-39.8,0-75.3,27.6-100.9,72.7
      c-55.9-8.3-101.9,1-125.4,29.7c-27.9,34-17,86.4,23,140.7C2.1,294.7-13,346.4,12.1,382c22.3,31.8,71.4,43.6,132.4,36.6
      c25.7,49.7,63,80.5,105.1,80.5c39.8,0,75.3-27.6,100.8-72.7c56,8.3,101.9-1,125.4-29.7c27.9-34,17-86.5-23-140.8
      C497,204.4,512.1,152.8,487,117.1z M461.6,131.3c17.2,24.4,5.2,62.3-27.2,102c-13.6-15.5-29.5-30.9-47.4-45.9
      c-4.2-29.7-11.3-57.1-20.8-81.3C411.2,101.9,446.5,109.9,461.6,131.3z M390.8,229c8.8,8.6,16.9,17.2,24.2,25.8
      c-7.5,7.6-15.8,15.3-24.6,22.8c0.6-9.2,0.9-18.6,0.9-28.1C391.2,242.6,391.1,235.8,390.8,229z M351.5,160.1
      c-6-4.2-12-8.4-18.3-12.5c-14.3-9.3-28.8-17.8-43.2-25.5c15.9-5,31.3-8.9,46.1-11.7C342.2,125.5,347.4,142.2,351.5,160.1z
       M249.6,26.7c28.4,0,54.7,22.4,74.6,58.7c-22,4.4-45.2,11.1-68.8,19.8c-26.3-11.7-52.1-20.6-76.5-26.6
      C198.2,46.4,223,26.7,249.6,26.7z M166.1,103.2c17,4,35,9.5,53.4,16.6c-15,6.8-30.1,14.3-45.2,22.7c-9,5-17.8,10.2-26.3,15.6
      C152.8,138.2,158.9,119.7,166.1,103.2z M37.5,367.8c-17.2-24.4-5.2-62.3,27.2-102c13.6,15.5,29.5,30.9,47.4,45.9
      c4.2,29.7,11.3,57.1,20.8,81.3C87.9,397.2,52.6,389.3,37.5,367.8z M108.4,270.1c-8.8-8.6-16.9-17.2-24.2-25.8
      c7.5-7.6,15.7-15.3,24.6-22.8c-0.6,9.2-0.9,18.6-0.9,28.1C107.9,256.5,108.1,263.3,108.4,270.1z M112.9,182.2
      c-17.2,12.8-32.7,26-46.4,39.4c-29.1-41.7-38.1-80.2-19-103.5C63.2,99,95.6,92.8,136.3,97.8C125.7,122.6,117.7,151.1,112.9,182.2z
       M147.6,339c6,4.2,12.1,8.4,18.3,12.5c14.3,9.3,28.8,17.8,43.2,25.5c-15.9,5-31.3,8.9-46.1,11.7C156.9,373.6,151.7,356.9,147.6,339
      z M249.6,472.4c-28.4,0-54.7-22.4-74.6-58.7c22-4.4,45.2-11.1,68.8-19.8c26.3,11.7,52.1,20.6,76.5,26.6
      C300.9,452.7,276.1,472.4,249.6,472.4z M333,395.9c-17-4-35-9.5-53.4-16.6c15-6.8,30.1-14.3,45.2-22.7c9-5,17.8-10.3,26.3-15.6
      C346.4,361,340.3,379.4,333,395.9z M357.9,303c-15.2,10.8-31.6,21.2-49,30.9c-21.2,11.8-42.7,22-63.9,30.4
      c-20.5-9.8-41.1-21.3-61.3-34.4c-15.3-10-29.6-20.4-42.9-31.1c-1.9-15.9-2.9-32.4-2.9-49.2c0-18.3,1.2-36.2,3.4-53.4
      c15.2-10.8,31.6-21.2,49-30.9c21.2-11.8,42.7-22,63.9-30.4c20.5,9.8,41.1,21.3,61.3,34.4c15.3,9.9,29.6,20.4,42.9,31.1
      c1.9,15.9,2.9,32.4,2.9,49.2C361.3,267.9,360.1,285.8,357.9,303z M451.6,381c-15.7,19.1-48.1,25.3-88.8,20.3
      c10.6-24.8,18.6-53.2,23.4-84.3c17.2-12.8,32.8-26.1,46.4-39.5C461.7,319.2,470.7,357.7,451.6,381z"/>
    <ellipse cx="249.6" cy="249.6" rx="50.1" ry="44.6"/>
  </symbol>

  <symbol viewBox="0 0 242.3 450" id="shape-facebook">
    <path d="M155.8,0c-48.5,0-86.5,38.1-86.5,86.5v51.9H0v69.2h69.2V450h69.2V207.7h77.9l17.3-69.2h-95.2V86.5
      c0-10.4,6.9-17.3,17.3-17.3h86.5V0H155.8z"/>
  </symbol>

  <symbol viewBox="0 0 430.1 265.9" id="shape-behance">
    <path d="M388.4,37.9H280.7V11.1h107.8L388.4,37.9C388.4,37.9,388.4,37.9,388.4,37.9z M208.9,147.6
      c7,10.8,10.4,23.8,10.4,39.2c0,15.9-3.9,30.1-11.9,42.7c-5.1,8.3-11.4,15.4-18.9,21c-8.5,6.5-18.6,11-30.2,13.4
      c-11.6,2.4-24.2,3.6-37.8,3.6H0V0h129.2c32.6,0.5,55.7,10,69.3,28.5c8.2,11.4,12.2,25,12.2,40.9c0,16.4-4.1,29.5-12.4,39.4
      c-4.6,5.6-11.4,10.6-20.4,15.2C191.7,129,202,136.8,208.9,147.6z M61.7,105.5h56.6c11.6,0,21-2.2,28.3-6.6
      c7.2-4.4,10.9-12.3,10.9-23.5c0-12.4-4.8-20.7-14.4-24.7c-8.2-2.8-18.8-4.2-31.6-4.2H61.7V105.5z M163,183c0-13.9-5.7-23.5-17-28.7
      c-6.3-2.9-15.3-4.4-26.8-4.5H61.7v71.3h56.6c11.6,0,20.6-1.5,27.1-4.7C157.1,210.6,163,199.5,163,183z M428.4,139.5
      c1.3,8.8,1.9,21.5,1.7,38.1H290.5c0.8,19.3,7.4,32.7,20,40.4c7.6,4.8,16.8,7.2,27.6,7.2c11.4,0,20.7-2.9,27.8-8.8
      c3.9-3.1,7.3-7.6,10.3-13.2h51.2c-1.3,11.4-7.5,22.9-18.6,34.6c-17.2,18.6-41.2,28-72.1,28c-25.5,0-48-7.9-67.5-23.6
      C249.8,226.5,240,201,240,165.5c0-33.3,8.8-58.7,26.4-76.4C284,71.3,306.9,62.5,335,62.5c16.7,0,31.7,3,45.1,9
      c13.4,6,24.4,15.4,33.1,28.4C421,111.3,426.1,124.5,428.4,139.5z M378.1,144.5c-0.9-13.3-5.4-23.4-13.4-30.3
      c-7.9-6.9-17.9-10.4-29.7-10.4c-12.9,0-22.8,3.7-29.9,11c-7.1,7.3-11.5,17.2-13.4,29.7L378.1,144.5L378.1,144.5z"/>
  </symbol>

</svg>
